<svg xmlns="http://www.w3.org/2000/svg" viewBox="0 0 700 550" id="man-having-fun-with-crackers"><path d="M383.59813,427.08085l-.56983-4.21-7.59033,1.03.56982,4.22,3.62012,26.67005v-3h.1001l.06982.54.4502-.43-.02-.11-1.04-7.72-.6001-4.34v-.01l-1.05957-7.82-.53027-3.92-.43994-3.22,5.60986-.76.41992,3.05v.01l.02.16,1.04,7.66.59033,4.36,1.06983,7.82v.01l.50976,3.82.13037.9.04.31994.46-.31994h.5Z"></path><polygon points="386.492 426.69 373.115 428.507 377.987 414.222 386.492 426.69"></polygon><polygon points="378.147 440.147 384.095 434.455 383.032 426.628 377.084 432.32 378.147 440.147"></polygon><polygon points="385.748 446.641 385.308 447.061 385.308 447.071 380.358 451.791 380.248 451.901 379.798 452.331 379.728 451.791 378.738 444.501 379.188 444.071 384.238 439.241 384.688 438.811 385.748 446.641"></polygon><polygon points="386.448 451.791 385.988 452.111 385.948 451.791 384.878 451.791 385.818 450.891 386.268 450.461 386.448 451.791"></polygon><path d="M394.668,424.17081l-.25,4.24-1.3999,23.38h1.01025l.41992-7.11005.25977-4.38.46-7.88.24023-3.95.19-3.24,5.6499.34-.18018,3.07v.01l-.00976.16-.46,7.72-.26026,4.38995-.46973,7.88v.01l-.18017,2.98h1l1.37012-22.92005.25-4.24Z"></path><polygon points="404.972 429.043 391.496 428.241 399.036 415.166 404.972 429.043"></polygon><polygon points="394.184 440.634 401.12 436.199 401.589 428.314 394.653 432.749 394.184 440.634"></polygon><polygon points="400.858 440.591 400.388 448.471 399.868 448.801 399.868 448.811 395.208 451.791 393.528 451.791 393.528 451.791 393.918 445.021 394.448 444.681 400.338 440.921 400.858 440.591"></polygon><path fill="#020202" d="M203.788,260.82382c10.30835,2.69751,20.81909,5.46338,31.27563,7.94641q3.93018.93694,7.87793,1.78088c1.31787.25489,2.63452.5553,3.95581.74915l.99.16064c.3274.04041.65015.058.97534.08887.15967.00916.33008.0387.48072.03162l.41845-.073a7.70635,7.70635,0,0,0,.88135-.3512,25.32367,25.32367,0,0,0,3.38452-2.09143c1.09888-.76391,2.169-1.57751,3.23584-2.39355,2.12915-1.64026,4.22046-3.33582,6.3042-5.041,8.33448-6.82361,16.50928-13.86731,25.28247-20.20544a72.3604,72.3604,0,0,1,6.84839-4.41248,21.22564,21.22564,0,0,1,3.81787-1.66028l3.8938-1.08557c1.29419-.36572,2.59009-.72973,3.86817-1.12085a15.18212,15.18212,0,0,0,3.55273-1.41357c.44824-.33.50562-.553.49732-1.26587l-.00611-2.021-.012-4.04211.25806.51221a14.92745,14.92745,0,0,1-4.14332-5.69,17.58365,17.58365,0,0,1-1.387-6.837,25.31212,25.31212,0,0,1,.22656-3.47193l.45728-3.35083.91479-6.70166.00416-.02905a.6094.6094,0,0,1,.157-.33325,20.9782,20.9782,0,0,1,4.84253-3.75952,32.24491,32.24491,0,0,1,5.48828-2.514,39.45822,39.45822,0,0,1,5.823-1.50977c.98266-.19885,1.981-.28906,2.9707-.43811.99512-.09729,1.99316-.15966,2.9895-.24035a.73978.73978,0,0,1,.79736.67761l.00245.04993.00024.03576a51.22924,51.22924,0,0,0,.34473,5.62073,17.87954,17.87954,0,0,0,.51342,2.68787,4.19285,4.19285,0,0,0,.46045,1.10217.85636.85636,0,0,0,.19825.21838c.0017-.01-.0398-.00329.03711-.01745l.18847-.03491a.76979.76979,0,0,1,.89673.61706.78157.78157,0,0,1,.0061.24158,45.36228,45.36228,0,0,0-.59619,7.55017,2.77232,2.77232,0,0,0,.11426.67163c.0061.02576-.00317-.016-.01392-.02246a.10107.10107,0,0,0-.021-.01746.31962.31962,0,0,0-.07544-.074.557.557,0,0,0-.458-.083.26027.26027,0,0,0-.072.03357l.00879-.01465.02051-.02185a.139.139,0,0,0,.07031-.06506,6.45764,6.45764,0,0,0,.78711-1.46656,15.74217,15.74217,0,0,1,1.863-3.64111,2.82794,2.82794,0,0,1,.41552-.43823,2.208,2.208,0,0,1,.533-.38672,2.28417,2.28417,0,0,1,1.39038-.30042,1.49927,1.49927,0,0,1,.84619.30079,1.889,1.889,0,0,1,.53711.62268,3.8421,3.8421,0,0,1,.38282,1.1726,13.60128,13.60128,0,0,1-.11622,4.12561,19.3074,19.3074,0,0,1-1.019,3.9198,6.2761,6.2761,0,0,1-1.11841,1.94568,2.10789,2.10789,0,0,1-.65942.469,1.45261,1.45261,0,0,1-1.0874.02343,2.2999,2.2999,0,0,1-1.062-1.07727l1.51855-.21179a29.90866,29.90866,0,0,1-1.15894,3.81531,23.35554,23.35554,0,0,1-1.707,3.61914,12.21336,12.21336,0,0,1-2.5708,3.21216,7.04171,7.04171,0,0,1-3.937,1.77539l.73755-1.06336a18.22714,18.22714,0,0,0,3.05078,5.89563c1.35669,1.67957,3.29834,2.82032,5.27271,2.25745a13.12373,13.12373,0,0,0,1.616-.46326l1.68116-.52307c1.11889-.34668,2.24169-.68115,3.32812-1.04431a10.98,10.98,0,0,0,2.94092-1.34363,4.87113,4.87113,0,0,0,1.05786-1.054c.127-.2207.25635-.40149.38989-.649l.39966-.756c2.08276-4.12537,3.98975-8.41943,5.88525-12.683q2.83191-6.41181,5.50953-12.88672c.87011-2.15259,1.78125-4.33582,2.49585-6.47937.0769-.26184.16821-.52234.23486-.78492l.12866-.79309c.09326-.52136.12817-1.13147.19531-1.69287.12183-1.14428.1941-2.31494.29029-3.472.32617-4.65381.56347-9.32642.78711-13.99744q.6621-14.01527,1.13183-28.04651l.07593.37793c-.84717-1.90845-1.594-3.82043-2.25317-5.793a29.09257,29.09257,0,0,1-1.44849-6.1394,6.0954,6.0954,0,0,1,.50244-3.48645,2.68461,2.68461,0,0,1,.71167-.80762,2.56644,2.56644,0,0,1,.99951-.49524,1.998,1.998,0,0,1,1.26319.13245,2.64654,2.64654,0,0,1,.87329.6449,8.44586,8.44586,0,0,1,1.573,3.00671,23.07857,23.07857,0,0,1,.78344,3.08838l-1.6084.13879.019-6.168.00952-3.0841.00464-1.542a2.05487,2.05487,0,0,1,.09179-.4768,2.00573,2.00573,0,0,1,.24732-.39307,1.79844,1.79844,0,0,1,.56347-.39612,3.29521,3.29521,0,0,1,.97632-.26037,9.6462,9.6462,0,0,1,3.33545.30847,12.28783,12.28783,0,0,1,3.051,1.20752,7.69828,7.69828,0,0,1,2.53882,2.24719,5.26136,5.26136,0,0,1,.9331,3.38574,10.45845,10.45845,0,0,1-.95141,3.15125c-.37842.93335-.70166,1.88721-.99585,2.84888a28.65249,28.65249,0,0,0-1.12281,5.90075,16.9718,16.9718,0,0,0-.00415,2.94666l.32691,3.07568.62011,6.14087c.8,8.19006,1.51929,16.38843,2.08374,24.60132.27881,4.10669.52417,8.21667.67847,12.3341.1377,4.11841.25586,8.23951.00781,12.38453-.06762,1.03662-.17358,2.07592-.34423,3.11975a8.57028,8.57028,0,0,1-.43384,1.58569,12.85591,12.85591,0,0,1-.69483,1.42151l-2.82177,5.47961L367.33684,228.591c-3.67237,7.35522-7.29566,14.73828-10.73023,22.20129-.85132,1.8678-1.70459,3.7378-2.48535,5.63013-.41357.94055-.75781,1.89636-1.11841,2.84863-.14819.47815-.27588.93409-.39526,1.4242l-.283,1.52893c-.81836,4.03711-1.6416,8.05469-2.31812,12.10632a179.71438,179.71438,0,0,0-2.52465,24.47742,138.52023,138.52023,0,0,0,1.38745,24.54932c1.105,8.13476,2.7268,16.21752,3.47973,24.43823a98.40983,98.40983,0,0,1,.36475,12.36841,105.04054,105.04054,0,0,1-1.21192,12.31506c-1.1394,8.11182-1.65356,16.33289-2.16162,24.53162-.9812,16.41052-1.58056,32.84716-2.09716,49.28369q-.76575,24.65533-1.17286,49.32116a.64435.64435,0,0,1-.64233.63074l-25.91968.06262a.707.707,0,0,1-.70508-.699q-.36181-31.66425-.88061-63.32629l-.32788-15.82483c-.0752-2.63355-.12354-5.27576-.2356-7.8982-.04614-1.33032-.10132-2.59814-.23926-3.86584-.17651-1.27063-.40942-2.5741-.64086-3.86511-1.9065-10.35669-4.051-20.70166-6.18213-31.03248l1.68554.38587c-5.76513,7.596-11.45678,15.27612-16.82885,23.13757-1.33619,1.96863-2.64893,3.95215-3.88965,5.9646-.6084,1.00891-1.22241,2.02136-1.75513,3.04688-.2644.50952-.53,1.0282-.728,1.52807a6.2826,6.2826,0,0,0-.25488.7179c-.03833.11792-.01977.16431-.04492.24792a1.70809,1.70809,0,0,0-.00537.38172c.15356,4.702.459,9.511.741,14.26318q.87268,14.296,2.07984,28.566.60461,7.13251,1.39453,14.23645c.27808,2.36377.55225,4.72864.90674,7.07117a54.3725,54.3725,0,0,0,1.35254,6.84534l.01758.06323a1.03592,1.03592,0,0,1-.27271,1.01794,117.72775,117.72775,0,0,1-8.87939,7.8927c-1.54883,1.24011-3.14429,2.43189-4.8252,3.52967a26.39966,26.39966,0,0,1-5.41675,2.85815,1.04026,1.04026,0,0,1-1.314-.59143c-3.04639-7.59985-5.83936-15.26294-8.457-23.0044-2.60205-7.74255-5.02295-15.55236-7.062-23.47827a142.94537,142.94537,0,0,1-4.40063-24.203,54.325,54.325,0,0,1-.12915-6.22156c.042-1.03821.14941-2.09949.25464-3.12512l.39892-3.04407c.56592-4.05566,1.23853-8.11071,2.18189-12.12072,1.853-8.05237,5.064-15.67908,8.40356-23.11353,3.36548-7.44043,6.85279-14.80017,10.252-22.20349q5.1101-11.09766,10.06713-22.26318,2.46826-5.58582,4.8462-11.20606c.78637-1.875,1.56787-3.75256,2.31567-5.639q.56726-1.41284,1.09814-2.83374c.34546-.92407.7212-1.94555.95679-2.7832l-.01587.21142-2.41748-40.68615,1.09107.49243c-6.57886,5.02966-13.26075,9.90234-20.16455,14.48559a108.997,108.997,0,0,1-10.70459,6.37513,29.8397,29.8397,0,0,1-2.89527,1.27,12.74773,12.74773,0,0,1-1.56909.44946,4.57,4.57,0,0,1-1.68091.07373,41.06843,41.06843,0,0,1-6.17163-1.26672c-8.00635-2.16858-15.84888-4.78272-23.67334-7.45435q-5.86743-2.00519-11.69263-4.13123-2.915-1.05633-5.811-2.17c-1.9375-.77161-3.83887-1.44446-5.78076-2.4187l.28686.04993a35.079,35.079,0,0,1-10.46753.35315,12.24341,12.24341,0,0,1-5.0144-1.70923l-.55811-.38831a4.83959,4.83959,0,0,1-.4917-.47534l-.47607-.4939-.39038-.53479a10.14,10.14,0,0,1-1.31421-2.32287,4.525,4.525,0,0,1-.25171-2.71851,7.78852,7.78852,0,0,1,1.19653-2.39746c.9773-1.38476,1.34473-3.09631,2.06983-4.7a8.97781,8.97781,0,0,1,1.344-2.29981,2.781,2.781,0,0,1,2.49024-1.06408,8.05669,8.05669,0,0,1,2.48291,1.00366,4.04324,4.04324,0,0,1,1.82641,2.00464l-.29785-.1416a3.12071,3.12071,0,0,0,1.55347-2.1189,3.65948,3.65948,0,0,0-.0332-1.36536c-.1023-.44372-.27881-.90185-.39966-1.38659a3.82674,3.82674,0,0,1-.13794-1.50684.91783.91783,0,0,1,.45288-.7229.97719.97719,0,0,1,.843.06555,4.20914,4.20914,0,0,1,1.1455.97132c.32422.34265.69092.65979,1.03907,1.00183a9.8861,9.8861,0,0,1,2.85791,5.04028A20.92549,20.92549,0,0,1,203.788,260.82382Zm-.15991.12024a23.56615,23.56615,0,0,0-.61914-5.78552,9.59539,9.59539,0,0,0-2.82569-4.88074c-.34473-.33252-.71411-.64539-1.05835-1.00183a3.9275,3.9275,0,0,0-1.05639-.89014.65747.65747,0,0,0-.54712-.06128.58557.58557,0,0,0-.25855.47217,3.51809,3.51809,0,0,0,.145,1.35974c.116.45264.29492.89917.416,1.39624a4.04066,4.04066,0,0,1,.04907,1.51514,3.51592,3.51592,0,0,1-1.75122,2.42334.19824.19824,0,0,1-.27051-.07373l-.01465-.03138-.01294-.03674a3.73848,3.73848,0,0,0-1.64746-1.71667,7.73278,7.73278,0,0,0-2.31494-.91919,2.29451,2.29451,0,0,0-2.05591.922,8.50505,8.50505,0,0,0-1.2417,2.18189c-.333.78662-.61255,1.60119-.91186,2.41809a10.49508,10.49508,0,0,1-1.15576,2.38208,7.28787,7.28787,0,0,0-1.09961,2.22913,3.926,3.926,0,0,0,.251,2.36254,9.5438,9.5438,0,0,0,1.25806,2.16895l.37988.5105.43189.43445a4.19722,4.19722,0,0,0,.44189.42236l.51221.347a11.5884,11.5884,0,0,0,4.74634,1.55651,34.37059,34.37059,0,0,0,10.21167-.44226.42125.42125,0,0,1,.25927.03638l.02784.01367c1.7622.85974,3.76538,1.56738,5.67187,2.30127l5.81494,2.12q5.83008,2.08263,11.69654,4.0664c7.82251,2.62744,15.68042,5.20117,23.635,7.3125a40.72212,40.72212,0,0,0,5.95581,1.20178,3.54245,3.54245,0,0,0,1.3916-.06018,11.70961,11.70961,0,0,0,1.404-.41113,28.78883,28.78883,0,0,0,2.769-1.23291,107.99756,107.99756,0,0,0,10.54419-6.35437c6.83985-4.59033,13.49195-9.49255,20.01294-14.53039a.67786.67786,0,0,1,1.09131.49243l2.62231,40.67346.0022.03345a.554.554,0,0,1-.01806.17834c-.3064,1.12671-.64747,2.016-1.00464,3.00317q-.53285,1.44527-1.09571,2.87061c-.74414,1.90515-1.519,3.79358-2.29907,5.67981q-2.35033,5.6532-4.801,11.2572-4.88416,11.21686-9.96607,22.339c-3.36426,7.42529-6.81885,14.81287-10.13281,22.23926-3.28882,7.43249-6.39551,14.92859-8.20947,22.78882-.92017,3.92529-1.57984,7.91809-2.13623,11.93225l-.39283,3.01636c-.10058.99951-.19873,1.96875-.23877,2.9646a52.36144,52.36144,0,0,0,.13111,5.99169,141.03843,141.03843,0,0,0,4.36157,23.83484c2.02856,7.85828,4.44312,15.625,7.03906,23.32788,2.60913,7.69544,5.40674,15.34888,8.43116,22.87476l-1.314-.59131a24.51034,24.51034,0,0,0,4.95776-2.63721c1.60254-1.04809,3.15332-2.20678,4.66455-3.41943a115.75466,115.75466,0,0,0,8.69629-7.74267l-.25512,1.08081a55.26437,55.26437,0,0,1-1.4441-7.20057c-.3623-2.3822-.64013-4.76355-.9226-7.14489q-.77893-7.14661-1.36841-14.29749-1.19532-14.30292-2.02026-28.62256c-.27222-4.78723-.56568-9.5177-.71265-14.36731a2.85057,2.85057,0,0,1,.00952-.51159,4.27644,4.27644,0,0,1,.10571-.63343,8.06151,8.06151,0,0,1,.34058-.97021,18.86986,18.86986,0,0,1,.81421-1.70447c.572-1.0935,1.20093-2.12366,1.82812-3.15869,1.27149-2.05212,2.60132-4.051,3.95264-6.03259,5.42969-7.90723,11.1394-15.57508,16.94482-23.189a.94951.94951,0,0,1,1.68555.38587c2.11109,10.35083,4.23,20.68567,6.1228,31.09741.231,1.30688.4607,2.60266.64454,3.94653.147,1.35462.20336,2.727.24511,4.03333.10523,2.65149.15381,5.287.21436,7.92981l.25171,15.83862q.40539,31.67266.57519,63.34119l-.70459-.69873,25.91968.06262-.64209.63049q.53686-24.67365,1.397-49.33276c.57251-16.44068,1.22779-32.88025,2.26538-49.30457.5376-8.21069,1.07691-16.42383,2.25342-24.60058a104.23241,104.23241,0,0,0,1.24463-12.21851,97.67117,97.67117,0,0,0-.3208-12.27588c-.71973-8.172-2.31128-16.25146-3.39307-24.41638-.53881-4.08154-.99609-8.18066-1.20214-12.29749-.1587-2.05493-.16651-4.11755-.23853-6.17651.00684-2.0603-.02539-4.12146.05981-6.1803a180.39419,180.39419,0,0,1,2.47144-24.57324c.66772-4.0625,1.4856-8.10535,2.29077-12.13l.27466-1.50416c.11938-.50769.26514-1.04577.42163-1.54748.3645-.97156.71582-1.95142,1.12769-2.89478.78295-1.91088,1.63256-3.78527,2.48169-5.66076,3.41772-7.49036,7.04418-14.87415,10.65869-22.26416l5.49243-11.04993,2.79077-5.50561.35376-.68689a3.76186,3.76186,0,0,0,.29712-.66285,7.746,7.746,0,0,0,.365-1.38562c.1543-.98706.252-1.99475.31152-3.01037.218-4.06909.07617-8.18067-.08764-12.27735-.17994-4.10009-.45069-8.199-.75513-12.29541-.61646-8.19274-1.3855-16.37683-2.23438-24.55175l-.65722-6.12879-.34375-3.05578a18.15744,18.15744,0,0,1-.021-3.21289,30.053,30.053,0,0,1,1.13916-6.2024c.30078-1.0061.63208-2.00329,1.02-2.97778a9.19805,9.19805,0,0,0,.83472-2.7218,3.76477,3.76477,0,0,0-.6919-2.43726,6.22461,6.22461,0,0,0-2.06006-1.78332,10.14687,10.14687,0,0,0-5.44873-1.29309,1.8419,1.8419,0,0,0-.508.129c-.0708.02552-.06494.04529-.07056.03211a.08125.08125,0,0,0,.041-.06885.10218.10218,0,0,0,.01977-.09827l.00488,1.542.00953,3.0841.019,6.168a.81006.81006,0,0,1-1.60571.15442l-.00293-.01562a21.558,21.558,0,0,0-.74048-2.84229,7.20545,7.20545,0,0,0-1.221-2.39954c-.27466-.29-.43823-.32324-.57373-.29516a.96569.96569,0,0,0-.35254.194.98576.98576,0,0,0-.29126.33325,4.71139,4.71139,0,0,0-.27588,2.499,27.59829,27.59829,0,0,0,1.38135,5.76014c.63867,1.90124,1.38452,3.7976,2.19849,5.62133l.00317.00708a.85919.85919,0,0,1,.07275.37122q-.46068,14.04017-1.07812,28.07251c-.21484,4.679-.44312,9.35608-.762,14.04077-.09546,1.17481-.16455,2.34094-.28785,3.524-.0708.6001-.09716,1.16174-.20483,1.79346l-.156.93872c-.07617.30358-.17651.59765-.2644.89672-.762,2.29822-1.65649,4.4386-2.53418,6.626-1.78369,4.34143-3.6521,8.63831-5.55249,12.92322-1.91772,4.28357-3.81958,8.54553-5.96582,12.77136l-.42285.79456c-.1438.26733-.34766.56945-.523.84924a6.61165,6.61165,0,0,1-1.42285,1.40637,12.51081,12.51081,0,0,1-3.41162,1.577c-1.134.37585-2.25537.7063-3.37232,1.04956l-1.67187.51575a14.82408,14.82408,0,0,1-1.75659.49658,5.15026,5.15026,0,0,1-.991.16223l-1.02319-.0116a6.35651,6.35651,0,0,1-1.94312-.56884,8.55467,8.55467,0,0,1-2.98608-2.42762,19.80058,19.80058,0,0,1-3.354-6.5061.81694.81694,0,0,1,.69531-1.05969l.04224-.00391a5.38675,5.38675,0,0,0,2.97974-1.36694,10.59011,10.59011,0,0,0,2.23486-2.79529,21.71467,21.71467,0,0,0,1.59375-3.36133,28.462,28.462,0,0,0,1.09766-3.57422l.00317-.01318a.816.816,0,0,1,1.51563-.19873c.10278.19348.28149.37854.22363.32739-.04785-.03857-.14649-.01086-.14649-.01086a.8512.8512,0,0,0,.11915-.09742,4.96805,4.96805,0,0,0,.781-1.413,17.756,17.756,0,0,0,.93482-3.57519,12.206,12.206,0,0,0,.12915-3.59974,2.377,2.377,0,0,0-.20166-.66784c-.03907-.06153-.07935-.12195-.08228-.11011-.00122-.0166-.00171-.00134.00732.00232.02808-.00549-.01123-.00781-.05859-.0033-.30957-.04016-.6167.13648-.96118.54847a14.94876,14.94876,0,0,0-1.6377,3.25488,7.34977,7.34977,0,0,1-1.08422,1.91357,1.32766,1.32766,0,0,1-.28687.25794l-.17432.12243-.08886.05738a1.60188,1.60188,0,0,1-.18775.06872,1.0323,1.0323,0,0,1-.9104-.14978,1.46748,1.46748,0,0,1-.17187-.14709l-.08863-.118a1.23913,1.23913,0,0,1-.13525-.2312,3.74592,3.74592,0,0,1-.25708-1.22314,26.897,26.897,0,0,1,.1521-4.00647c.12671-1.30579.2854-2.59351.47559-3.89368l1.0913.82373a1.64931,1.64931,0,0,1-1.34863.00452,2.17327,2.17327,0,0,1-.823-.76209,5.601,5.601,0,0,1-.654-1.52539,19.28653,19.28653,0,0,1-.55762-2.9342,52.5793,52.5793,0,0,1-.34253-5.81116l.79981.76319-2.89527.22583c-.95556.14282-1.9226.22619-2.86914.41626a37.97439,37.97439,0,0,0-5.59814,1.436,31.55577,31.55577,0,0,0-5.24072,2.3689,19.85493,19.85493,0,0,0-4.48242,3.411l.16088-.36194-.95459,6.696-.47729,3.34814a23.90905,23.90905,0,0,0-.2334,3.269,16.25191,16.25191,0,0,0,1.24268,6.33692,13.76486,13.76486,0,0,0,3.69116,5.1781l.03271.02746a.63593.63593,0,0,1,.22535.485l-.012,4.04211-.0061,2.021a3.25255,3.25255,0,0,1-.166,1.21472,2.23529,2.23529,0,0,1-.84643,1.042,15.59713,15.59713,0,0,1-3.92676,1.57373c-1.301.38965-2.602.74671-3.90283,1.106l-3.8999,1.06226a20.24177,20.24177,0,0,0-3.58912,1.54235,71.35806,71.35806,0,0,0-6.76,4.30115c-8.75073,6.23352-16.9519,13.2511-25.374,19.98157-2.10425,1.68677-4.2168,3.36487-6.37353,4.99231-1.08155.81006-2.16553,1.61743-3.28711,2.38049a25.89454,25.89454,0,0,1-3.50806,2.11585,8.21823,8.21823,0,0,1-.9978.38281l-.57886.09045a5.24714,5.24714,0,0,1-.5249-.03723,16.90142,16.90142,0,0,1-2.03931-.27759c-1.34375-.21142-2.65381-.52465-3.97852-.79467q-3.95067-.88422-7.874-1.86316c-5.23364-1.29749-10.44873-2.662-15.657-4.05042l-7.80615-2.1051-3.89942-1.06653-1.94848-.53735-.97388-.26978C204.3444,261.16159,203.99748,261.07956,203.6281,260.94406Z"></path><path fill="#020202" d="M207.23234,272.11764a4.83723,4.83723,0,0,1-1.12524-2.56482,6.77451,6.77451,0,0,1,.18311-2.818,6.9058,6.9058,0,0,1,1.28247-2.50244,5.7618,5.7618,0,0,1,2.1936-1.71045c-.24439.93677-.57666,1.70337-.82666,2.488-.29175.76062-.49463,1.51794-.7229,2.25964-.219.74756-.38184,1.506-.54248,2.29736C207.509,270.36459,207.37956,271.17868,207.23234,272.11764Z"></path><path fill="none" stroke="#020202" stroke-miterlimit="10" d="M311.948,224.404s4.8,5.04,14.16,1.44"></path><path fill="#020202" d="M309.33122 233.11007a33.8133 33.8133 0 003.44678 9.11426 10.0292 10.0292 0 003.04394 3.33081 5.902 5.902 0 004.084.90271 13.42783 13.42783 0 004.35864-1.37744 19.89673 19.89673 0 003.85718-2.70764A36.03693 36.03693 0 00334.248 234.765a23.36647 23.36647 0 01-5.02881 8.71765 18.34493 18.34493 0 01-4.04907 3.261 14.76777 14.76777 0 01-5.03125 1.69946 7.72935 7.72935 0 01-5.37378-1.32324 10.7513 10.7513 0 01-3.35132-4.15015A22.54087 22.54087 0 01309.33122 233.11007zM351.188 371.76084c-3.96 24.48-5.75977 123.84-5.75977 123.84H319.50779s-.71972-84.96-1.43994-90.72c-.71972-5.76-6.83984-35.28-6.83984-35.28-.02-1.13-.12988-2.26-.23975-3.38-.16015-1.12-.31006-2.24-.54-3.35a49.30864 49.30864 0 00-1.79-6.53 42.58044 42.58044 0 00-2.76025-6.21 22.40371 22.40371 0 00-4.02979-5.49c.98 2.04 1.79981 4.1 2.62012 6.15.79 2.06 1.55957 4.12994 2.27979 6.21.39013 1.04.73974 2.08 1.08984 3.13.3999 1.04.68018 2.11 1.08008 3.15.3501 1.05.71 2.11 1.1001 3.16.37011 1.05.73 2.12 1.18994 3.16 0 0-23.76026 30.96-23.76026 35.28s3.24024 61.92 6.48047 71.64c0 0-11.52 11.52-18.72021 14.03992 0 0-22.68018-55.44-19.79981-79.2 2.87989-23.75994 6.83985-29.16 23.03955-64.8 16.2002-35.64 17.28028-40.68 17.28028-40.68s19.7998 13.08 51.48 3.6C348.30809 332.88083 355.14793 347.28086 351.188 371.76084zM291.308 256.80392q.91332 1.9735 1.677 4.03113a26.13812 26.13812 0 011.241 4.30713l-1.9961.12365a24.7312 24.7312 0 00-.21655-4.19445C291.83635 259.64889 291.59978 258.22238 291.308 256.80392zM364.06633 149.53366a4.91538 4.91538 0 011.98413-1.58094 6.45112 6.45112 0 012.47705-.57727 5.68143 5.68143 0 012.53833.48853 4.27116 4.27116 0 011.94824 1.66968c-.89746-.022-1.60962-.149-2.33911-.14649-.71362-.02661-1.394-.04321-2.09058-.01306C367.18474 149.40109 365.79558 149.551 364.06633 149.53366zM337.388 203.764a16.27389 16.27389 0 001.92-7.92c0-4.8-5.06009-7.68-5.06009-7.68-3.8601-2.88-16.77991-5.28-22.29991-4.8s-6.24 5.76-7.68 9.36 4.08 6.24 4.08 6.24 6.24-7.44 21.6-8.16c0 0 0 11.52 2.64 10.32 0 0-1.44 9.6 0 8.88S334.748 203.284 337.388 203.764z"></path><path fill="#020202" d="M309.33122 201.124a4.67092 4.67092 0 011.39282-.91309 6.47531 6.47531 0 011.58814-.47986 5.47846 5.47846 0 011.68481-.00732 3.15863 3.15863 0 011.551.6803 20.75031 20.75031 0 00-3.07837.314A29.37181 29.37181 0 01309.33122 201.124zM311.948 215.404s4.08 7.32 10.68 0C322.628 215.404 314.588 215.164 311.948 215.404zM321.78972 200.10763a5.649 5.649 0 011.75146-.63965 7.20009 7.20009 0 011.864-.13769 4.996 4.996 0 011.86279.45141 2.52412 2.52412 0 011.36011 1.34229 4.76414 4.76414 0 00-1.61353-.60425 11.13648 11.13648 0 00-1.67212-.192C324.20109 200.24374 323.0385 200.263 321.78972 200.10763zM312.908 205.489a1.12567 1.12567 0 000-2.25 1.12567 1.12567 0 000 2.25zM325.748 205.969a1.12567 1.12567 0 000-2.25 1.12567 1.12567 0 000 2.25zM318.068 203.764c-.26538.967-.57569 1.89722-.8772 2.82215-.29077.92578-.60156 1.84314-.79321 2.7539a4.52422 4.52422 0 00-.145 1.30054.92923.92923 0 00.12207.44946.35614.35614 0 00.1477.13062c.09571.05261.188.11816.28809.16272a3.54257 3.54257 0 002.69751.18054 3.054 3.054 0 01-2.98413.54517c-.13208-.03626-.25415-.09388-.38281-.14124a1.21911 1.21911 0 01-.43335-.30981 1.76225 1.76225 0 01-.39527-.90564 4.99831 4.99831 0 01.1084-1.62342 12.71679 12.71679 0 011.051-2.83776A13.65841 13.65841 0 01318.068 203.764zM278.93767 488.86349a59.98558 59.98558 0 01-2.67652 9.80786 66.84456 66.84456 0 01-4.19214 9.34876 45.30828 45.30828 0 01-2.66674 4.39929l-1.42994 2.07263c-.4414.68884-.896 1.37183-1.25854 2.08545a7.7966 7.7966 0 00-.79566 2.16577 1.91124 1.91124 0 00.44336 1.81214 3.58672 3.58672 0 002.04639.72961 8.9262 8.9262 0 002.41895-.11792l-.04468.01318a14.20846 14.20846 0 002.8833-1.73828 32.1001 32.1001 0 002.65869-2.19336 53.628 53.628 0 004.79468-4.978c3.04565-3.47937 5.68164-7.23621 8.59057-10.89454 1.45093-1.81921 2.9668-3.594 4.448-5.3623.74341-.88245 1.46875-1.766 2.08057-2.64453l.40674-.64917c.08569-.20764.20923-.41638.27685-.616a2.28446 2.28446 0 00.071-1.19568 14.714 14.714 0 00-1.12671-2.95849l-1.46143-3.14734c-.9812-2.09863-1.91992-4.21753-2.87719-6.32752l1.36572.28626q-3.3512 2.72534-6.80542 5.30713c-1.15259.8612-2.30078 1.72815-3.49512 2.53759A28.31661 28.31661 0 01278.93767 488.86349zm-.15747-.12329a41.15522 41.15522 0 003.363-2.71252l3.22339-2.84058 6.37964-5.75757.83911-.75745.52686 1.04371c1.04419 2.06848 2.10693 4.12793 3.12744 6.20776l1.53906 3.12109a13.97407 13.97407 0 011.32105 3.52027 4.44781 4.44781 0 01-.16333 2.22717 10.24982 10.24982 0 01-.4358.96533c-.16821.28235-.35156.5437-.52978.8136-.74048 1.00183-1.51807 1.88586-2.29077 2.75366-1.54444 1.74012-3.08814 3.44568-4.57764 5.2074L286.5883 507.812q-2.31848 2.61548-4.77295 5.104c-1.63354 1.65979-3.33179 3.25537-5.07422 4.80139a29.54733 29.54733 0 01-5.707 4.15027l-.01147.00586-.03369.00745a11.86747 11.86747 0 01-2.627.30029 4.52971 4.52971 0 01-2.71167-.77893 3.1003 3.1003 0 01-1.0354-2.8103 9.09871 9.09871 0 01.727-2.65271 28.87852 28.87852 0 012.58277-4.50525c.46435-.69165.91455-1.393 1.33374-2.115.44409-.70606.876-1.42029 1.28051-2.15186 1.64942-2.90649 3.13819-5.91235 4.50489-8.9834C276.39665 495.08786 277.64592 492.01681 278.7802 488.7402zM328.01188 495.69381a.44778.44778 0 01-.00219.11548l-.0564.166-.11475.33459-.25439.65894c-.18408.43262-.37817.863-.59009 1.28345-.41968.84472-.89526 1.66088-1.39477 2.46582a28.19832 28.19832 0 01-3.57666 4.4259 27.60934 27.60934 0 01-9.61841 6.1145l-1.34741.50269c-.45142.16027-.92115.25744-1.38135.38891a21.52009 21.52009 0 01-2.79834.62195c-.93628.14441-1.905.291-2.81836.39392-.90332.08838-1.7959.21716-2.67065.381a9.67135 9.67135 0 00-2.45.79407 2.09677 2.09677 0 00-1.32128 1.5874 3.541 3.541 0 00.85156 2.202 10.46512 10.46512 0 001.8584 1.91614l-.16114-.068a66.6078 66.6078 0 008.261.656c2.77466.089 5.553.06689 8.32983-.00794 2.78321-.05676 5.53882-.19531 8.3418-.29052 2.79907-.03821 5.614.01892 8.40381.23828 1.3894.09888 2.79077.24475 4.09814.2688a4.84075 4.84075 0 001.68921-.20288 1.81671 1.81671 0 00.9502-.94165 20.50744 20.50744 0 001.2063-3.71192c.34546-1.33032.696-2.69739.979-3.99634a61.55517 61.55517 0 00.95337-16.29345l.844.70019c-2.72094.111-5.43359.11475-8.15234.09046-1.35913-.01429-2.71851-.06336-4.07812-.16431-.67994-.05273-1.35889-.10059-2.03785-.19434A7.55863 7.55863 0 01328.01188 495.69381zm-.08764-.17968a13.44233 13.44233 0 002.06421.16992c.66919.024 1.34472.00317 2.01709-.01319 1.34619-.0382 2.6936-.13415 4.04-.20507 2.69238-.1604 5.38745-.416 8.06811-.655l.75049-.0669.09351.76734a54.32381 54.32381 0 01-.43653 16.91821c-.314 1.4165-.66015 2.741-1.01709 4.10046a19.08155 19.08155 0 01-1.47387 4.166 3.862 3.862 0 01-2.04615 1.81616 6.62066 6.62066 0 01-2.42822.27417c-1.47192-.06653-2.83472-.24951-4.21484-.38159-5.47779-.64172-11.00489-.61243-16.5896-.827-5.57544-.25464-11.10523-.31311-16.71827-.83362l-.07763-.0072-.08374-.06079a12.38122 12.38122 0 01-2.1604-1.94446 4.54234 4.54234 0 01-1.26441-2.84533 2.749 2.749 0 01.57715-1.65223 4.25 4.25 0 011.22608-1.07727 11.02443 11.02443 0 012.77295-1.13317 21.30764 21.30764 0 012.834-.55579l2.70459-.44849a22.93847 22.93847 0 002.64746-.60034c.43677-.11633.885-.19861 1.313-.34253l1.27783-.45215a29.5731 29.5731 0 009.33789-5.428 33.65017 33.65017 0 003.76953-3.97119c.56323-.72387 1.10938-1.46618 1.60523-2.24426.25366-.3855.47558-.78955.71582-1.18506l.33789-.6062.15674-.30884.07861-.15588A1.19826 1.19826 0 01327.92424 495.51413zM193.675 253.1102a26.8321 26.8321 0 013.27466 2.99621 13.2044 13.2044 0 011.39136 1.79151 3.92293 3.92293 0 01.49707 1.13244 1.52967 1.52967 0 01-.01465.78955 1.19956 1.19956 0 01-.62695.66309l.24145-.64734a7.36318 7.36318 0 01.73828 2.69336 2.49645 2.49645 0 01-.39209 1.53577 2.14608 2.14608 0 01-1.42065.83239l.35791-.67749a6.39342 6.39342 0 01.35278 1.0791 4.37049 4.37049 0 01.12183 1.16114 1.84343 1.84343 0 01-.46387 1.21936 1.8793 1.8793 0 01-1.1875.51025l.29541-.44849a2.86363 2.86363 0 01-.01563 1.31592 2.39594 2.39594 0 01-.6206 1.1239 3.14705 3.14705 0 01-1.04395.65479 4.54688 4.54688 0 01-1.15942.25439 6.23478 6.23478 0 001.06348-.45666 2.84123 2.84123 0 00.83032-.71826 2.22954 2.22954 0 00.374-.96521 2.37788 2.37788 0 00-.092-1.00293l-.115-.36035.41065-.08826a1.15025 1.15025 0 00.67724-.33838 1.13241 1.13241 0 00.1897-.72534 4.63546 4.63546 0 00-.48413-1.80615l-.2522-.53809.61035-.13965a1.1751 1.1751 0 00.76319-.44006 1.561 1.561 0 00.20166-.95215 6.50357 6.50357 0 00-.59937-2.30615l-.18481-.417.42651-.2306a.3064.3064 0 00.12891-.09692.65493.65493 0 00.00561-.29895 3.106 3.106 0 00-.34961-.89148A13.7506 13.7506 0 00196.436 256.529C195.57048 255.36374 194.63078 254.23385 193.675 253.1102z"></path><path d="M415.62053 82.41439a34.00965 34.00965 0 0118.25781 2.72913 47.06845 47.06845 0 0115.2041 10.79468 61.5413 61.5413 0 015.87354 7.28174 72.40979 72.40979 0 014.84814 7.97693c.69238 1.39221 1.376 2.78845 2.0398 4.19152.60937 1.42859 1.25366 2.84107 1.83276 4.27967.53345 1.45764 1.09155 2.90393 1.603 4.36584q.72693 2.20807 1.41357 4.42481-.8778-2.1515-1.71924-4.30921c-.59668-1.42517-1.238-2.83093-1.85376-4.24475-.63623-1.40491-1.32153-2.78686-1.97876-4.17969-.70947-1.36731-1.437-2.72485-2.17138-4.076a73.148 73.148 0 00-10.7793-14.86084 47.908 47.908 0 00-14.69678-10.7821 38.46979 38.46979 0 00-8.69482-2.90271A31.27273 31.27273 0 00415.62053 82.41439zM405.01188 132.01864a34.38831 34.38831 0 0111.34888-7.726 28.786 28.786 0 0113.65039-2.26758 27.19336 27.19336 0 016.82764 1.455 29.76459 29.76459 0 016.26465 3.0144 41.32917 41.32917 0 015.53393 4.14466c.85034.77465 1.647 1.60632 2.46924 2.40356.77783.84363 1.53247 1.70715 2.28247 2.56921L450.8798 133.278c-.8811-.72546-1.73266-1.48169-2.63134-2.17615a41.31572 41.31572 0 00-5.62671-3.79016c-.96778-.58288-2.00513-1.02612-3.0105-1.52844-.50879-.23828-1.041-.42151-1.55957-.63513a13.45 13.45 0 00-1.58447-.561 26.69584 26.69584 0 00-6.55786-1.33374 30.33183 30.33183 0 00-13.20093 1.91736 41.44178 41.44178 0 00-11.69654 6.8479zM477.653 131.72055a55.35924 55.35924 0 017.8042-14.93482 50.41856 50.41856 0 015.53637-6.43445 44.88219 44.88219 0 016.56958-5.41174 42.40954 42.40954 0 017.541-3.96936 39.40605 39.40605 0 018.20288-2.27063 44.41123 44.41123 0 0116.82495.71692l-2.09326-.2301c-.697-.07154-1.38672-.19715-2.08838-.21082-1.39868-.061-2.79053-.1914-4.187-.12182a42.56862 42.56862 0 00-8.29077.7799 45.23143 45.23143 0 00-7.94531 2.37622 41.55991 41.55991 0 00-7.27857 3.953 50.851 50.851 0 00-12.0376 11.39135 63.75746 63.75746 0 00-4.71362 6.90516A60.84223 60.84223 0 00477.653 131.72055zM472.68937 128.18222c.86475-6.3927 2.09473-12.70764 3.41431-19.00354 1.3562-6.28821 2.80371-12.55689 4.61987-18.74707-.86181 6.39331-2.09228 12.70825-3.4143 19.00366C475.95085 115.72287 474.50285 121.99142 472.68937 128.18222zM405.27849 187.50143a43.21728 43.21728 0 014.93164-15.26782 37.17173 37.17173 0 0110.49536-12.26843 33.62894 33.62894 0 017.071-4.02271 39.85658 39.85658 0 013.82447-1.3855c.64892-.19372 1.31079-.34228 1.96606-.51123a17.81552 17.81552 0 011.9856-.41223l1.99829-.33411 2.01342-.20092c1.33863-.16809 2.68848-.15332 4.0315-.19837 1.344-.01782 2.686.11133 4.02392.15991 1.3357.11719 2.66529.2959 3.991.45948l-4.00488-.13306c-1.334.04431-2.66675.00793-3.99243.118-1.32471.11048-2.65381.14429-3.96314.36817l-1.96679.28027-1.94141.41a17.20947 17.20947 0 00-1.91943.48413c-.63306.18531-1.27539.33838-1.90162.542a38.662 38.662 0 00-3.68042 1.42492 33.22154 33.22154 0 00-6.802 3.9419 39.328 39.328 0 00-10.40625 11.74231 47.4673 47.4673 0 00-3.44531 7.1582A46.11066 46.11066 0 00405.27849 187.50143zM484.64665 142.09127a50.05858 50.05858 0 0110.26392-4.29565 54.79173 54.79173 0 0110.978-2.09973 42.26477 42.26477 0 0111.18067.55688 33.99979 33.99979 0 0110.438 3.86219q-1.31544-.46656-2.60254-.96045c-.43213-.15821-.85547-.33667-1.292-.4773l-1.33764-.33972c-.89111-.22058-1.76148-.50818-2.65967-.67932l-2.70459-.45618a9.00984 9.00984 0 00-1.35718-.17065l-1.36474-.11511a22.6529 22.6529 0 00-2.731-.14588c-.91284.00318-1.825-.03149-2.73706-.0166l-2.73413.17078a69.634 69.634 0 00-10.823 1.79565A80.08815 80.08815 0 00484.64665 142.09127zM432.00529 141.82382a57.80984 57.80984 0 018.96265.32434 57.14555 57.14555 0 018.83325 1.54993 57.14743 57.14743 0 01-8.9624-.32422A57.824 57.824 0 01432.00529 141.82382zM484.6801 149.89535c4.85205 1.15271 9.58276 2.65882 14.28393 4.25134 4.689 1.62781 9.34766 3.34424 13.88379 5.417-4.853-1.14991-9.58374-2.65625-14.28393-4.25122C493.87565 153.68222 489.21721 151.96542 484.6801 149.89535zM481.17692 157.53476a46.84894 46.84894 0 0112.126 7.82531 50.61919 50.61919 0 019.469 10.99695A48.25107 48.25107 0 01508.6 189.65133c.26172 1.18433.59814 2.34949.78345 3.54724l.32251 1.78492.22583 1.7987a53.59144 53.59144 0 01.28466 7.21887c-.12988-1.19763-.19921-2.39514-.34375-3.58435-.17211-1.18676-.2871-2.3778-.5393-3.54834a53.5597 53.5597 0 00-1.645-6.95507 54.532 54.532 0 00-5.95752-12.89624 57.65036 57.65036 0 00-9.063-10.95826 55.83525 55.83525 0 00-5.47925-4.59692A49.38533 49.38533 0 00481.17692 157.53476zM464.569 163.20724a173.38137 173.38137 0 01-1.09594 21.90613 176.33765 176.33765 0 01-3.74341 21.646c-.8689 3.56286-1.92359 7.08081-3.09082 10.5592A86.37666 86.37666 0 01452.52653 227.53a54.56958 54.56958 0 01-12.7622 17.75134 51.28351 51.28351 0 006.7666-8.55152c1.008-1.51245 1.88232-3.107 2.77221-4.68908.8147-1.62488 1.6504-3.23633 2.36255-4.90906a118.01767 118.01767 0 006.86743-20.66565 196.82353 196.82353 0 004.00269-21.46765q.75366-5.41553 1.23608-10.86865C464.13542 170.49862 464.3903 166.857 464.569 163.20724zM469.65348 146.4542c3.46061 0 3.46634-5.37819 0-5.37819-3.4606 0-3.46634 5.37819 0 5.37819zM461.86813 102.68644a1.216 1.216 0 000-2.43055 1.216 1.216 0 000 2.43055zM502.73125 120.26859a1.216 1.216 0 000-2.43055 1.216 1.216 0 000 2.43055zM490.04447 97.07852a1.216 1.216 0 000-2.43055 1.216 1.216 0 000 2.43055zM434.05489 105.80266a1.216 1.216 0 000-2.43055 1.216 1.216 0 000 2.43055z"></path><path d="M441.57176 134.51723a1.216 1.216 0 000-2.43055 1.216 1.216 0 000 2.43055zM411.0229 145.44438a1.216 1.216 0 000-2.43055 1.216 1.216 0 000 2.43055zM430.935 165.19255a1.216 1.216 0 000-2.43055 1.216 1.216 0 000 2.43055zM511.1008 165.56374a1.216 1.216 0 000-2.43055 1.216 1.216 0 000 2.43055zM458.18855 180.82852a1.216 1.216 0 000-2.43055 1.216 1.216 0 000 2.43055zM480.1701 169.93444a1.216 1.216 0 000-2.43055 1.216 1.216 0 000 2.43055zM526.38218 127.61573a1.216 1.216 0 000-2.43055 1.216 1.216 0 000 2.43055zM495.90944 145.66771a1.216 1.216 0 000-2.43055 1.216 1.216 0 000 2.43055zM455.62905 127.91045a1.216 1.216 0 000-2.43055 1.216 1.216 0 000 2.43055zM433.00838 79.59121a1.216 1.216 0 000-2.43055 1.216 1.216 0 000 2.43055zM379.19182 33.29287a21.81822 21.81822 0 00-6.20752-.8067l-1.564.02307-1.55517.16187a24.23881 24.23881 0 00-3.07227.53766 32.55944 32.55944 0 00-11.27051 5.148 50.86329 50.86329 0 00-9.27148 8.36108c-1.31372 1.62628-2.63526 3.2558-3.91162 4.91986-1.19043 1.72681-2.35889 3.47205-3.57666 5.194 1.0542-1.81909 2.15771-3.61493 3.23925-5.42926 1.21509-1.72192 2.48951-3.40936 3.75684-5.102a48.46333 48.46333 0 019.28955-8.63464 31.9802 31.9802 0 0111.60938-5.085A23.34595 23.34595 0 01379.19182 33.29287zM379.339 67.80307a28.18961 28.18961 0 00-6.83349-6.19086 20.16815 20.16815 0 00-8.52295-3.11768 20.42278 20.42278 0 00-9.031.92994A35.90879 35.90879 0 00346.62419 63.45a28.73123 28.73123 0 018.1206-4.6369 19.78877 19.78877 0 014.59351-1.11841 18.65758 18.65758 0 014.74756-.03186A19.989 19.989 0 01372.8593 61.076 23.39348 23.39348 0 01379.339 67.80307zM331.00969 57.47549a41.387 41.387 0 00-1.51953-5.50439 43.38766 43.38766 0 00-2.17579-5.25531 34.5918 34.5918 0 00-6.42749-9.26392 28.265 28.265 0 00-4.29541-3.64722 30.764 30.764 0 00-4.95922-2.69012 28.9567 28.9567 0 00-5.41211-1.67542 39.35315 39.35315 0 00-5.65113-.79223 30.21367 30.21367 0 0111.30371 1.86871 27.25054 27.25054 0 019.61353 6.35046 33.55356 33.55356 0 016.40942 9.57624A37.6571 37.6571 0 01331.00969 57.47549zM334.80827 55.81149c-.18017-2.18756-.26831-4.37549-.34253-6.56342-.07641-2.188-.07715-4.37616-.11938-6.56421.02563-2.18829.01513-4.37646.075-6.56481.0603-2.18842.134-4.37684.301-6.56556.18164 2.18756.26954 4.37549.34424 6.56342.074 2.188.07788 4.37616.11792 6.56421-.02807 2.18829-.0144 4.3764-.07641 6.56482C335.048 51.43435 334.97429 53.62277 334.80827 55.81149zM371.425 104.71127a31.35933 31.35933 0 00-.47119-5.4126 32.30389 32.30389 0 00-1.2959-5.24695 26.18422 26.18422 0 00-5.292-9.27038 24.78149 24.78149 0 00-8.6333-6.25128 39.59381 39.59381 0 00-10.42139-2.90754 32.978 32.978 0 0110.67725 2.315 23.48629 23.48629 0 014.84717 2.63446 23.06246 23.06246 0 014.15625 3.65222 25.78878 25.78878 0 015.27807 9.63269A29.39772 29.39772 0 01371.425 104.71127zM324.90666 63.40609c-1.05029-.69622-2.10767-1.37158-3.21094-1.96948-1.08252-.62982-2.19214-1.20953-3.32007-1.74621a44.60049 44.60049 0 00-6.95849-2.70075 32.5834 32.5834 0 00-7.313-1.34289l-1.865-.07874c-.62207-.008-1.2417.06635-1.86523.09149l-.93824.03974c-.3103.03271-.61718.09252-.92675.13763-.61768.10077-1.23975.19177-1.86695.27661a23.16846 23.16846 0 017.48877-1.11157 29.86266 29.86266 0 017.52271 1.18378 39.10916 39.10916 0 017.01538 2.933A34.11157 34.11157 0 01324.90666 63.40609zM359.99724 70.56826a39.32728 39.32728 0 01-6.09815-.19958 38.8848 38.8848 0 01-6.01318-1.03381 38.88384 38.88384 0 016.09814.19958A39.33161 39.33161 0 01359.99724 70.56826zM323.79631 68.59805c-1.654.38086-3.31934.67053-4.98633.94629-1.666.28534-3.34009.50525-5.01416.72491-1.67651.19983-3.35327.398-5.03809.53174-1.68383.14209-3.36914.27118-5.06616.30737 1.65381-.3822 3.31909-.6715 4.98609-.94775 1.666-.28467 3.34008-.50488 5.01416-.72345 1.67675-.19873 3.35351-.39722 5.03857-.53027C320.414 68.76431 322.09953 68.63552 323.79631 68.59805zM325.06364 74.17349a34.32193 34.32193 0 00-4.54834 1.78033c-.74.33441-1.45776.71772-2.18457 1.07624-.7019.408-1.4126.79834-2.10449 1.21881a36.398 36.398 0 00-7.54492 6.04956l-.85718.85522-.77832.92652c-.50391.62951-1.06421 1.21777-1.52319 1.88171l-1.36377 2.00342-.34058.50158-.28906.53272-.593 1.05823a44.687 44.687 0 00-3.689 9.00781q.26659-1.19421.55932-2.38928a18.14 18.14 0 01.65552-2.37122 33.10319 33.10319 0 011.90356-4.54907 31.82022 31.82022 0 015.71485-8.04187 34.50182 34.50182 0 017.82007-6.01917A32.06024 32.06024 0 01325.06364 74.17349zM335.33171 80.26657c-.38989 2.45532-.728 4.91577-.99219 7.3844q-.43249 3.69744-.69238 7.40954a133.94551 133.94551 0 00-.32837 14.85315 80.2871 80.2871 0 001.69165 14.71875 44.44776 44.44776 0 002.08081 7.10718 34.88474 34.88474 0 003.31323 6.63794 37.12625 37.12625 0 01-6.02295-13.6 75.4736 75.4736 0 01-1.90014-14.83532 119.949 119.949 0 01.52563-14.93579A117.95928 117.95928 0 01335.33171 80.26657zM334.65708 68.44076a1.83058 1.83058 0 000-3.659 1.83058 1.83058 0 000 3.659zM345.73875 40.3606a.82729.82729 0 000-1.65358.82729.82729 0 000 1.65358zM316.07679 46.37039a.82729.82729 0 000-1.65358.82729.82729 0 000 1.65358zM327.75841 32.69743a.82729.82729 0 000-1.65358.82729.82729 0 000 1.65358zM363.82474 46.314a.82729.82729 0 000-1.65358.82729.82729 0 000 1.65358z"></path><path d="M354.81537 64.38651a.82729.82729 0 000-1.65358.82729.82729 0 000 1.65358zM373.63382 75.92252a.82729.82729 0 000-1.65358.82729.82729 0 000 1.65358zM357.62092 86.29606a.82729.82729 0 000-1.65359.82729.82729 0 000 1.65359zM304.18763 75.36487a.82729.82729 0 000-1.65358.82729.82729 0 000 1.65358zM337.29277 92.90762a.82729.82729 0 000-1.65358.82729.82729 0 000 1.65358zM324.17457 82.58826a.82729.82729 0 000-1.65358.82729.82729 0 000 1.65358zM299.30341 47.96487a.82729.82729 0 000-1.65358.82729.82729 0 000 1.65358zM317.07769 64.23461a.82729.82729 0 000-1.65358.82729.82729 0 000 1.65358zM346.376 58.027a.82729.82729 0 000-1.65358.82729.82729 0 000 1.65358zM368.17654 29.006a.82729.82729 0 000-1.65358.82729.82729 0 000 1.65358zM218.76677 98.41623a17.12773 17.12773 0 019.19116.59326 23.46609 23.46609 0 018.00342 4.73279 35.55583 35.55583 0 015.999 7.11206c.77271 1.34509 1.55127 2.687 2.2832 4.0487l1.87769 4.24121L243.977 115.0444c-.78174-1.325-1.59961-2.62891-2.41211-3.92969a37.3035 37.3035 0 00-6.01025-6.91125 23.88148 23.88148 0 00-7.751-4.74866A18.571 18.571 0 00218.76677 98.41623zM215.59855 123.535a17.40294 17.40294 0 015.314-4.32239 14.40155 14.40155 0 016.69214-1.68921 8.84612 8.84612 0 011.73828.12757l.86572.1073a8.03372 8.03372 0 01.84278.21618c.55639.1648 1.12329.29944 1.66894.49.529.23487 1.05371.48 1.575.72864.25733.13013.53.23169.77393.38489l.72265.47449 1.4397.948c.8855.72913 1.73438 1.5022 2.57739 2.26624-.93628-.6604-1.81689-1.3811-2.751-2.01941l-1.46387-.86-.729-.42956c-.24537-.13794-.51709-.22327-.77393-.3374-.52124-.21277-1.03906-.42908-1.55249-.65564-.53125-.17542-1.08057-.29492-1.6189-.44568a7.563 7.563 0 00-.81421-.1958l-.833-.08826a8.5045 8.5045 0 00-1.66651-.0968 14.50673 14.50673 0 00-6.4834 1.49622c-.49511.26538-1.00537.50781-1.49194.793-.47021.31043-.97095.58008-1.41724.92847A18.30166 18.30166 0 00215.59855 123.535zM251.70988 120.30075a27.63706 27.63706 0 013.24658-7.75867 24.61218 24.61218 0 015.51685-6.40527 19.99112 19.99112 0 017.56445-3.772 22.16405 22.16405 0 018.39746-.35827 25.64977 25.64977 0 00-8.27563.81579 22.57566 22.57566 0 00-3.8501 1.51917 20.73437 20.73437 0 00-3.45166 2.275 25.37562 25.37562 0 00-5.5022 6.17627A33.43817 33.43817 0 00251.70988 120.30075zM249.09123 118.752c.07349-1.60864.21362-3.209.364-4.808.14917-1.59912.353-3.19141.52686-4.78748.22314-1.59.41992-3.1831.668-4.7699.24853-1.58667.50659-3.17224.83276-4.74926-.07226 1.60876-.21289 3.209-.363 4.8081-.15063 1.59888-.35229 3.19153-.52758 4.78736-.22486 1.58972-.41968 3.1831-.66919 4.76977C249.67473 115.58944 249.41643 117.17489 249.09123 118.752zM218.0883 151.11508A21.56588 21.56588 0 01219.892 143.313a18.92363 18.92363 0 014.69824-6.54687 16.91473 16.91473 0 013.35083-2.291 17.22437 17.22437 0 013.76343-1.48852 24.18918 24.18918 0 017.981-.73889 29.0455 29.0455 0 00-7.84717 1.193 18.18135 18.18135 0 00-6.84155 3.78674 19.20925 19.20925 0 00-4.67627 6.28162A25.23087 25.23087 0 00218.0883 151.11508zM255.62834 125.161a25.02787 25.02787 0 014.9231-2.569 28.68644 28.68644 0 015.36889-1.51368 21.90509 21.90509 0 015.5835-.19482 16.99256 16.99256 0 015.355 1.47376 23.63176 23.63176 0 00-2.67749-.66163c-.45191-.07373-.89649-.18273-1.35034-.23217l-1.365-.108a23.9072 23.9072 0 00-5.44483.32935 32.73247 32.73247 0 00-5.30713 1.34961A39.865 39.865 0 00255.62834 125.161zM229.43889 127.26425a28.89853 28.89853 0 014.4707-.21948 28.55944 28.55944 0 014.45874.39563 28.55914 28.55914 0 01-4.47095.21948A28.88445 28.88445 0 01229.43889 127.26425zM255.97648 129.04049c2.46192.36707 4.87867.915 7.28418 1.50733 2.40088.61023 4.79053 1.266 7.13453 2.104-2.46241-.36572-4.87891-.91382-7.28418-1.50732C260.71037 130.53292 258.321 129.87716 255.97648 129.04049zM254.559 132.98825a23.52017 23.52017 0 016.3606 3.37732 25.31159 25.31159 0 015.16113 5.077 23.349 23.349 0 013.44849 6.36328 24.35385 24.35385 0 01.98291 3.48169 13.30518 13.30518 0 01.26684 1.785l.19532 1.78955a32.779 32.779 0 00-1.88745-6.88709 28.0642 28.0642 0 00-1.52-3.21215c-.27539-.5243-.63135-1.00232-.94239-1.5055l-.48486-.74377-.54834-.69885a26.70376 26.70376 0 00-4.95776-5.07471l-1.42456-1.07434c-.49756-.32556-.98609-.66834-1.49537-.97742A25.15265 25.15265 0 00254.559 132.98825zM246.54094 136.51474a86.56733 86.56733 0 01.38574 10.94043 87.96 87.96 0 01-.94214 10.92346 55.38216 55.38216 0 01-2.69946 10.63525 27.23542 27.23542 0 01-5.59253 9.36975 25.59895 25.59895 0 003.00171-4.54 32.62553 32.62553 0 002.14575-4.99121 58.91208 58.91208 0 002.53711-10.56872 98.30476 98.30476 0 001.07861-10.84583C246.63273 143.804 246.66984 140.15939 246.54094 136.51474zM248.24352 127.97243a1.343 1.343 0 000-2.68429 1.34295 1.34295 0 000 2.68429zM242.5751 106.535a.60691.60691 0 000-1.2131.60691.60691 0 000 1.2131zM263.64313 113.5425a.60692.60692 0 000-1.21311.60692.60692 0 000 1.21311zM256.34885 102.54915a.60692.60692 0 000-1.21311.60692.60692 0 000 1.21311zM228.87607 109.26625a.60691.60691 0 000-1.2131.60691.60691 0 000 1.2131z"></path><path d="M233.83407 123.22656a.60692.60692 0 000-1.21311.60692.60692 0 000 1.21311zM219.10646 129.95841a.60692.60692 0 000-1.21311.60692.60692 0 000 1.21311zM229.84762 138.93316a.60691.60691 0 000-1.2131.60691.60691 0 000 1.2131zM269.72956 135.712a.60691.60691 0 000-1.2131.60691.60691 0 000 1.2131zM244.065 145.55105a.60692.60692 0 000-1.21311.60692.60692 0 000 1.21311zM254.53352 139.19962a.60692.60692 0 000-1.21311.60692.60692 0 000 1.21311zM275.71678 116.19143a.60691.60691 0 000-1.2131.60691.60691 0 000 1.2131zM261.32971 126.4632a.60692.60692 0 000-1.21311.60692.60692 0 000 1.21311zM240.544 119.34383a.60692.60692 0 000-1.21311.60692.60692 0 000 1.21311zM227.24209 96.27586a.60692.60692 0 000-1.21311.60692.60692 0 000 1.21311z"></path><line x1="189.858" x2="186.024" y1="270.182" y2="289.949" fill="none" stroke="#020202" stroke-miterlimit="10"></line><line x1="198.674" x2="192.961" y1="224.723" y2="252.797" fill="none" stroke="#020202" stroke-miterlimit="10"></line><rect width="5.702" height="30.016" x="193.716" y="218.507" fill="#020202" rx="2.85" transform="rotate(9.026 196.567 233.515)"></rect><path d="M227.45866 207.67428a12.93857 12.93857 0 00-3.41406-.99035L223.172 206.55l-.88061-.05688a13.62658 13.62658 0 00-1.7566.00891 19.59879 19.59879 0 00-6.75659 1.71533 32.02085 32.02085 0 00-6.06006 3.60474c-.91919.74658-1.84375 1.49658-2.751 2.27-.87891.80591-1.73609 1.63843-2.64575 2.43249.73974-.94445 1.53247-1.85058 2.30322-2.7832.84863-.855 1.73095-1.68335 2.61059-2.51807a25.458 25.458 0 016.14209-3.9215 17.41435 17.41435 0 017.13916-1.56531A12.77983 12.77983 0 01227.45866 207.67428zM223.853 226.99984a17.9886 17.9886 0 00-3.30493-4.04528 11.75966 11.75966 0 00-4.37671-2.5409 6.39287 6.39287 0 00-1.22437-.31592 5.66218 5.66218 0 00-1.25488-.18029c-.42358-.02344-.84863-.07325-1.2749-.07776-.42627.0376-.854.06592-1.28443.09033a6.371 6.371 0 00-1.282.1792l-1.28686.239c-.8501.20789-1.678.50708-2.551.71973.78-.41931 1.585-.81519 2.40454-1.1875l1.28833-.4104a6.0508 6.0508 0 011.32129-.31323 11.1142 11.1142 0 015.45142.30578 10.81871 10.81871 0 014.61206 2.93506A12.45727 12.45727 0 01223.853 226.99984zM197.91472 216.05636a24.801 24.801 0 00-.396-3.22571 23.92957 23.92957 0 00-.72192-3.13647 21.605 21.605 0 00-2.63868-5.76575 14.2114 14.2114 0 00-.92016-1.28393l-1.04273-1.188a17.704 17.704 0 00-2.43286-2.02051 22.19416 22.19416 0 00-5.79956-2.76343c.53418.09449 1.07105.19849 1.60718.31531a8.92089 8.92089 0 011.596.41235l1.54492.6045a12.76657 12.76657 0 011.46753.7843 7.01294 7.01294 0 011.39233.92309c.429.3573.87891.69507 1.29151 1.07239l1.13256 1.2417a14.75674 14.75674 0 01.9961 1.34973 18.17615 18.17615 0 012.54761 6.12793A19.7994 19.7994 0 01197.91472 216.05636zM200.21794 215.53122a49.7518 49.7518 0 01.88794-7.44288 49.20281 49.20281 0 011.87012-7.25866 49.23423 49.23423 0 01-.88794 7.44287A49.81677 49.81677 0 01200.21794 215.53122zM215.48063 246.80563a22.06556 22.06556 0 00-.05566-6.12671 15.25384 15.25384 0 00-2.00732-5.6322c-.12793-.21338-.23389-.44177-.37769-.64514l-.45581-.59326a8.4123 8.4123 0 00-.95825-1.14832l-1.06226-1.06543-1.19824-.92114-.60229-.46387-.65772-.38306-1.32153-.776c-.90308-.48437-1.87207-.83728-2.8064-1.31176 1.001.25781 2.01733.52307 3.00855.86511l1.438.6499c.24.11011.48243.217.71607.34009l.66455.43469a13.14476 13.14476 0 014.471 4.50549 13.90062 13.90062 0 011.92114 6.05237A15.72136 15.72136 0 01215.48063 246.80563zM209.4882 256.32589a22.051 22.051 0 001.304-5.98669 15.25444 15.25444 0 00-.70825-5.937c-.07764-.23645-.13037-.48267-.22535-.71277l-.313-.67969a8.41473 8.41473 0 00-.67969-1.33215l-.79956-1.27442-.96436-1.16381-.48437-.58594-.55664-.51929-1.11646-1.0498c-.77319-.67237-1.63989-1.23133-2.44555-1.90125.9187.47339 1.85083.9574 2.74169 1.51062l1.25806.95252c.20972.16064.42236.3186.6228.49047l.55176.57117a13.14226 13.14226 0 013.3606 5.38465 13.89592 13.89592 0 01.53149 6.32763A15.71737 15.71737 0 01209.4882 256.32589zM193.86589 218.7225c-1.09351-.94287-2.23413-1.79553-3.38379-2.61475a31.98876 31.98876 0 00-3.59766-2.18493 21.83922 21.83922 0 00-3.87622-1.56409 21.46564 21.46564 0 00-4.17822-.7373 11.65979 11.65979 0 014.356-.02259 15.19067 15.19067 0 014.15527 1.43518A18.04322 18.04322 0 01193.86589 218.7225zM212.735 226.48007a11.01829 11.01829 0 01-3.46558-.51343 10.896 10.896 0 01-3.17944-1.471 10.8962 10.8962 0 013.46558.51331A11.01946 11.01946 0 01212.735 226.48007zM192.68962 221.509a29.80744 29.80744 0 01-5.791.12671 29.47414 29.47414 0 01-5.72656-.87061 29.4568 29.4568 0 015.791-.12671A29.797 29.797 0 01192.68962 221.509zM192.80314 224.76413a26.66767 26.66767 0 00-5.31152 1.52966 22.85808 22.85808 0 00-4.7876 2.59863 20.73583 20.73583 0 00-4.03222 3.643 30.30938 30.30938 0 00-3.188 4.517c.15869-.43774.3269-.875.50683-1.30871a10.428 10.428 0 01.57178-1.29077 16.32393 16.32393 0 011.50025-2.40528 17.23278 17.23278 0 011.86035-2.16076c.33008-.34424.71753-.62659 1.07422-.94275a9.57074 9.57074 0 011.13379-.87036 18.21221 18.21221 0 015.0996-2.51209A16.47239 16.47239 0 01192.80314 224.76413zM190.9843 232.89523a26.68414 26.68414 0 00-4.81958 2.70569 22.85573 22.85573 0 00-4.06494 3.62646 20.7315 20.7315 0 00-3.09058 4.46985 30.28921 30.28921 0 00-2.06812 5.12708c.054-.46241.11744-.92652.19336-1.39a10.42328 10.42328 0 01.261-1.38745 16.32505 16.32505 0 01.90918-2.68494 17.21506 17.21506 0 011.31592-2.52954c.24243-.41064.55468-.77429.82959-1.16382a9.55384 9.55384 0 01.90429-1.10681 18.21546 18.21546 0 014.38843-3.61364A16.47369 16.47369 0 01190.9843 232.89523z"></path><path d="M193.628 213.064a1.5009 1.5009 0 000-3 1.5009 1.5009 0 000 3zM216.668 197.584a1.5009 1.5009 0 000-3 1.5009 1.5009 0 000 3zM217.508 211.744a1.5009 1.5009 0 000-3 1.5009 1.5009 0 000 3zM169.868 229.144a1.5009 1.5009 0 000-3 1.5009 1.5009 0 000 3zM221.228 244.144a1.5009 1.5009 0 000-3 1.5009 1.5009 0 000 3zM184.268 246.544a1.5009 1.5009 0 000-3 1.5009 1.5009 0 000 3zM193.688 190.384a1.5009 1.5009 0 000-3 1.5009 1.5009 0 000 3zM170.648 204.244a1.5009 1.5009 0 000-3 1.5009 1.5009 0 000 3zM237.068 222.424a1.5009 1.5009 0 000-3 1.5009 1.5009 0 000 3z"></path><polyline fill="none" stroke="#000" stroke-miterlimit="10" stroke-width=".707" points="456.958 521.741 379.628 521.741 379.628 454.791 379.728 451.791 380.228 451.791 380.358 451.791 384.878 451.791 385.948 451.791 386.448 451.791 386.948 451.791 393.018 451.791 393.528 451.791 394.028 451.791 395.208 451.791 399.688 451.791 400.688 451.791 404.628 451.791 404.968 451.791 405.308 451.791 416.208 451.791 427.878 451.791 428.158 451.791 429.358 451.791 430.418 451.791 450.168 451.791 450.328 451.791 450.668 451.791 451.008 451.791 451.168 451.791 456.958 451.791"></polyline><polygon points="495.966 478.095 418.636 478.095 398.636 451.794 475.966 451.794 495.966 478.095"></polygon><path d="M473.708,421.23081l-11.14014.08H462.188c-.19971,0-.40967,0-.60986.01-3.64014.04-7.27.09-10.91016.17l-.27979.01.00977.26q.12012,6.48.10986,12.96c0,1.44,0,2.88-.01953,4.32q0,4.31991-.08008,8.63995c-.01025,1.37-.04,2.74-.08007,4.11005-.03028,1.51-.07032,3.02-.11036,4.53l-.00976.46.46-.01,3.07031-.05,20.00977-.36005c.12988-5.63995.28027-11.36.3501-17.15.11962-5.78.11962-11.63.14013-17.45v-.53Zm-.52979,1.06006c.00977,1.43994.00977,2.88995.00977,4.32995.01025,2.25.02,4.5.05029,6.76.01953,1.83.04,3.66.07959,5.5.03028,2.08.06006,4.16.11035,6.26.06983,3.68.15967,7.4.23975,11.15l-18.9502-.35h-.28955l-3.32031-.06c0,.15.01025.29.01025.44l-.45019-.45.43994.01c-.02978-1.36-.06982-2.73-.1001-4.09-.04-1.37006-.06982-2.74-.07959-4.11005-.01025-.47-.02-.93-.02-1.4-.04-2.26-.06-4.5-.06-6.76v-.48c-.02-1.37006-.02-2.75-.02-4.12006q-.01539-3.63.02-7.26c.02-1.87.0498-3.75.08984-5.62h-.27l.27-.28v.28c3.12012.06994,6.25.11,9.37012.15.62988.01,1.25.01,1.87988.02l10.99023.08v-.53l.52979.53Z"></path><polygon points="450.668 427.758 450.668 439.62 473.708 426.318 473.708 421.764 461.05 421.764 450.668 427.758"></polygon><polygon points="450.668 451.923 450.668 456.324 454.056 456.324 473.708 444.978 473.708 433.116 450.668 446.418 450.668 451.923"></polygon><path d="M461.715 421.92611a14.08223 14.08223 0 01-.46973-3.276 12.24411 12.24411 0 01.33326-3.25683 8.54894 8.54894 0 011.366-2.94715A8.41076 8.41076 0 01465.308 410.284a8.27459 8.27459 0 00-2.156 2.30152 8.17417 8.17417 0 00-1.08447 2.91247 11.61555 11.61555 0 00-.074 3.10254 13.30577 13.30577 0 00.66748 3.00122zM515.19987 521.77975l-23.07519.41455-.46094.0083.01074-.45837c.06836-2.88.1626-5.75989.18921-8.63989q.0736-4.32.08374-8.64.06592-8.63984-.09668-17.27991l-.00513-.26794.27906-.00586q5.75976-.12122 11.51977-.17627l11.52-.08118.53321-.00378-.002.535c-.02051 5.81824-.021 11.66236-.13647 17.44349C515.48405 510.4227 515.33049 516.14621 515.19987 521.77975zm-.07055-.0708c-.13062-5.88647-.28418-11.68286-.35962-17.40808-.11548-5.73877-.116-11.41455-.13648-17.11646l.53125.53125-11.52-.08129q-5.75976-.06245-11.51977-.17627l.27368-.27369q-.17139 8.64-.09668 17.27991.00623 4.32.08374 8.64c.02661 2.88.12085 5.75988.18921 8.63989l-.45-.44983z"></path><polygon points="492.125 493.178 492.125 505.04 515.165 491.738 515.165 487.184 502.506 487.184 492.125 493.178"></polygon><polygon points="492.125 517.343 492.125 521.744 495.513 521.744 515.165 510.398 515.165 498.536 492.125 511.838 492.125 517.343"></polygon><path d="M503.17155 487.34652a14.08221 14.08221 0 01-.46972-3.276 12.24561 12.24561 0 01.33325-3.257 8.54859 8.54859 0 011.366-2.947 8.40985 8.40985 0 012.36353-2.16223 8.27668 8.27668 0 00-2.156 2.30164 8.17443 8.17443 0 00-1.08447 2.91235 11.61656 11.61656 0 00-.074 3.10266 13.30668 13.30668 0 00.66748 3.00122zM428.00779 421.23081l-11.12988.08h-.38965c-.20019 0-.41015 0-.61035.01-3.63965.04-7.27.09-10.91016.17l-.27978.01.01025.26c.04 2.29.08008 4.57.08985 6.86v.01c.00976.13.00976.27.00976.4.02 3.34.02 6.67 0 10.01q-.01464 4.31991-.08984 8.63995c-.00977 1.37-.04 2.74-.08008 4.11005-.02978 1.51-.06982 3.02-.10986 4.53l-.01026.46.46-.01 23.08008-.41c.04-1.51995.07031-3.04.11035-4.56994q.14941-6.24006.25-12.58c.10987-5.78.10987-11.63.13965-17.45v-.53zm-.02978 35.06006l-18.96-.35h-.01026l-3.59961-.06c0 .15.00977.29.00977.44l-.4502-.45.44043.01c-.03027-1.36-.07031-2.73-.10009-4.09-.04-1.37006-.06983-2.74-.08008-4.11005-.01026-.47-.01026-.93-.02-1.4-.02979-2.26-.06006-4.5-.06006-6.76v-.48c-.02979-3.8-.02979-7.59.01025-11.39q.03-2.805.08985-5.61h-.28028l.28028-.28v.28c3.12011.06994 6.25.11 9.37011.15.62012.01 1.25.01 1.87012.02l10.98975.08v-.53l.52978.53H427.478c.01025 1.43994.01025 2.88995.01025 4.32995.00977 2.25.01953 4.5.04981 6.76.02 1.83.04 3.66.08007 5.5.02979 2.08.06006 4.16.10987 6.26q.06006 3.3.1499 6.65C427.90818 453.28086 427.94822 454.78086 427.978 456.29087z"></path><polygon points="404.972 427.758 404.972 439.62 428.012 426.318 428.012 421.764 415.353 421.764 404.972 427.758"></polygon><polygon points="404.972 451.923 404.972 456.324 408.36 456.324 428.012 444.978 428.012 433.116 404.972 446.418 404.972 451.923"></polygon><path d="M416.019 421.92611a14.0832 14.0832 0 01-.47-3.276 12.2344 12.2344 0 01.3335-3.25683 8.54861 8.54861 0 011.36572-2.94715 8.41076 8.41076 0 012.36353-2.16211 8.28165 8.28165 0 00-2.156 2.30152 8.17417 8.17417 0 00-1.08447 2.91247 11.6255 11.6255 0 00-.074 3.10254 13.31826 13.31826 0 00.66748 3.00122zM451.168 455.82084v-20.68l-.21973-.15a.751.751 0 00-.12011-.07 4202.099 4202.099 0 01-.32032-.2 14.377 14.377 0 00-7.5-2.11005c-.21 0-.41992 0-.62988.02-.33008.01-.6499.03-.96973.07a14.47567 14.47567 0 00-12.85009 14.37 14.21737 14.21737 0 00.7998 4.72 14.422 14.422 0 0024.38037 4.93c.01953-.02.04-.05.05957-.07l.33008-.37.30029-.34.10987-.12zm-8.16016 4.7a13.464 13.464 0 01-12.58984-8.73 13.22228 13.22228 0 01-.85986-4.72 13.43042 13.43042 0 0120.60986-11.38v21.13H452.248A13.47561 13.47561 0 01443.00779 460.52085z"></path><path d="M441.53288,433.22116a14.66846,14.66846,0,0,0-1.40576-3.71057,13.09438,13.09438,0,0,0-3.95874-4.502,12.48371,12.48371,0,0,0-1.77905-.97522,13.437,13.437,0,0,0-3.94117-1.06555,13.567,13.567,0,0,1,4.03711.83472,12.77973,12.77973,0,0,1,1.88575.89038,13.63582,13.63582,0,0,1,4.40429,4.44067,15.436,15.436,0,0,1,1.73511,3.87671Z"></path><rect width="77.33" height="69.95" x="398.636" y="451.794" fill="none" stroke="#000" stroke-miterlimit="10" stroke-width=".707"></rect></svg>