<svg xmlns="http://www.w3.org/2000/svg" xmlns:xlink="http://www.w3.org/1999/xlink" xml:space="preserve" id="dad-writing-greeting-card" x="0" y="0" style="enable-background:new 0 0 2500 2500" version="1.1" viewBox="0 0 2500 2500">
  <g>
    <g>
      <defs>
        <path id="SVGID_21_" d="M273.21,1563.74c0,0,86.82-175.58,251.78-315.43s183.88-568.86,369.88-810.77
				c145.8-189.63,498.33-292.35,897.7-9.6s577.36,785.95,373.33,1303.53s-876.89,603.84-1419.52,440.9
				S221.54,1667.88,273.21,1563.74z"></path>
      </defs>
      <clipPath id="SVGID_2_">
        <use xlink:href="#SVGID_21_" style="overflow:visible"></use>
      </clipPath>
      <g style="clip-path:url(#SVGID_2_)">
        <g>
          <path d="M1587.54,1923.82H252.47V251.22h1335.07V1923.82z M256.36,1919.93h1327.29V255.12H256.36V1919.93z" style="fill:#f4ecd8"></path>
        </g>
        <g>
          <rect width="1179.36" height="1535.52" x="254.42" y="253.17" style="fill:#aacecf"></rect>
        </g>
        <g>
          <rect width="53.84" height="1585.07" x="592.64" y="253.17" style="fill:#f4ecd8"></rect>
        </g>
        <g>
          <rect width="686.27" height="1666.84" x="1561.84" y="253.17" style="fill:#fac286"></rect>
        </g>
        <g>
          <polygon points="2248.11 1876.43 2248.11 1920.01 1561.84 1920.01 1561.84 253.17 1610.91 253.17 1610.91 1876.43" style="fill:#d59d56"></polygon>
        </g>
        <g>
          <rect width="662.51" height="45.36" x="1585.6" y="1060.3" style="fill:#d59d56"></rect>
        </g>
        <g>
          <rect width="1993.69" height="328.34" x="254.42" y="1918.53" style="fill:#d38169"></rect>
        </g>
        <g>
          <path d="M1926.16,2140.67c-14.45,9.35-32.01,12.5-49.03,15.11c-89.4,13.78-179.78,19.51-270.04,25.19
					c-164.32,10.32-328.65,20.68-492.97,31.03c-216.54,13.67-433.82,27.3-650.29,12.42c-72.43-4.99-148.24-14.53-209.42-52.1v-168.1
					c5.61-2.8,11.33-5.33,16.98-7.52c125.42-48.63,265.49-22.47,398.97-5.84c274.48,34.27,515.25,42.52,791.71,33.33
					c141.82-4.75,283.75,10.94,423.82,33.53c25.89,4.2,57.12,13.74,62.23,39.49C1951.43,2114.12,1940.65,2131.33,1926.16,2140.67z" style="fill:#c36a52"></path>
        </g>
        <g>
          <g>
            <g>
              <polygon points="2076.62 2246.86 2069.46 2246.86 1561.49 1918.53 1568.66 1918.53" style="fill:#b46147"></polygon>
            </g>
          </g>
          <g>
            <g>
              <path d="M2248.11,1963.11v4.71c-27.96-18.92-54.63-36.87-73.36-49.3h7.01
							C2197.92,1929.24,2220.08,1944.11,2248.11,1963.11z" style="fill:#b46147"></path>
            </g>
          </g>
          <g>
            <g>
              <polygon points="1439.42 2246.86 1432.68 2246.86 968.25 1918.53 975.03 1918.53" style="fill:#b46147"></polygon>
            </g>
          </g>
          <g>
            <g>
              <path d="M709.89,2246.86h-5.14c-93.8-109.38-236.63-275.22-284.22-328.34h5.18
							c20.01,22.31,60.71,68.84,144.31,165.73C625.51,2148.58,681.23,2213.45,709.89,2246.86z" style="fill:#b46147"></path>
            </g>
          </g>
        </g>
        <g style="opacity:.8">
          <path d="M2249.08,2247.84H253.44V252.19h1995.64V2247.84z M255.39,2245.89h1991.75V254.14H255.39V2245.89z" style="fill:#151914"></path>
        </g>
        <g>
          <rect width="297.89" height="354.07" x="1657.99" y="846.96" style="fill:#ae6439"></rect>
        </g>
        <g>
          <path d="M1929.47,1201.03h-271.49V846.96h135.59c20.13,17.48,36.45,38.24,49.34,62.57
					c18.26,34.38,29.36,72.04,40.26,109.42c15.34,52.68,30.57,105.45,42.52,159.03C1927.37,1185.45,1928.89,1193.28,1929.47,1201.03
					z" style="fill:#964d29"></path>
        </g>
        <g>
          <rect width="47" height="407.58" x="1639.1" y="1672.66" style="fill:#5b2c1c"></rect>
        </g>
        <g>
          <path d="M1943.8,1678.85l-510.03,1.01v-60.9l56.89-10.24c0,0,204.39-26.63,339.47-18.81
					c57.44,3.35,102.33,12.93,113.66,33.41C1981.77,1692.02,1943.8,1678.85,1943.8,1678.85z" style="fill:#ae6439"></path>
        </g>
        <g>
          <path d="M1830.14,1589.92c-1.75,17.37-16.32,39.06-71.92,50.93c-84.5,18.11-264.36,32.9-324.44,37.54v-59.42
					l56.89-10.24C1490.66,1608.73,1695.06,1582.09,1830.14,1589.92z" style="fill:#964d29"></path>
        </g>
        <g>
          <path d="M1011.15,2001.73l-3.74,61.18l-165.18-2.57v-28c0,0,9.77-8.72,17.17-19.04
					c4.87-6.78,8.72-14.25,8.14-20.37c-1.13-12.27,90.3,0.55,127.84,6.31C1005.03,2000.72,1011.15,2001.73,1011.15,2001.73z" style="fill:#f4a487"></path>
        </g>
        <g>
          <path d="M1009.12,2102.78c-0.82,4.95-1.91,8.49-3.39,9.62c-7.36,5.65-252.79,0.74-270.86,1.48
					c-18.03,0.74-24.3-1.87-26.52-8.49c-0.27-0.82-0.58-1.68-0.86-2.61c-1.95-6.77-1.91-17.21,28.85-35.32
					c35.01-20.64,108.68-39.45,108.68-39.45s23.21,17.72,71.18,19.9c48.01,2.22,94.58-7.36,94.58-7.36
					S1012.28,2082.96,1009.12,2102.78z" style="fill:#c1c7f3"></path>
        </g>
        <g>
          <path d="M1009.12,2102.78c-0.82,4.95-1.91,8.49-3.39,9.62c-7.36,5.65-252.79,0.74-270.86,1.48
					c-18.03,0.74-24.3-1.87-26.52-8.49c-0.27-0.82-0.58-1.68-0.86-2.61H1009.12z" style="fill:#251f20"></path>
        </g>
        <g>
          <g>
            <path d="M798.77,2073.53c-0.89,0-1.7-0.62-1.9-1.53c-1.36-6.12-11.21-12.22-19.98-15.89
						c-0.97-0.4-1.61-1.57-1.25-2.55c0.37-0.98,1.46-1.49,2.45-1.16c0.08,0.03,0.16,0.06,0.24,0.1c6.18,2.59,20.29,9.43,22.34,18.66
						c0.23,1.05-0.43,2.09-1.48,2.32C799.05,2073.52,798.91,2073.53,798.77,2073.53z" style="fill:#251f20"></path>
          </g>
        </g>
        <g>
          <g>
            <path d="M817.25,2066.36c-0.89,0-1.7-0.62-1.9-1.53c-1.35-6.12-11.21-12.22-19.98-15.89
						c-0.97-0.4-1.61-1.57-1.25-2.55c0.37-0.98,1.46-1.49,2.45-1.16c0.08,0.03,0.16,0.06,0.24,0.1c6.18,2.59,20.29,9.43,22.34,18.66
						c0.23,1.05-0.43,2.09-1.48,2.32C817.53,2066.34,817.39,2066.36,817.25,2066.36z" style="fill:#251f20"></path>
          </g>
        </g>
        <g>
          <g>
            <path d="M835.73,2060.34c-0.89,0-1.7-0.62-1.9-1.53c-1.35-6.12-11.21-12.22-19.98-15.89
						c-0.97-0.4-1.61-1.57-1.25-2.55c0.37-0.98,1.46-1.5,2.45-1.16c0.08,0.03,0.17,0.06,0.24,0.1c6.18,2.59,20.29,9.43,22.34,18.66
						c0.23,1.05-0.43,2.09-1.48,2.32C836.01,2060.32,835.87,2060.34,835.73,2060.34z" style="fill:#251f20"></path>
          </g>
        </g>
        <g>
          <path d="M1286.08,2042.86l-3.74,61.18l-165.18-2.57v-28c0,0,9.77-8.72,17.17-19.04
					c4.87-6.78,8.72-14.25,8.14-20.37c-1.13-12.27,90.3,0.55,127.84,6.31C1279.96,2041.85,1286.08,2042.86,1286.08,2042.86z" style="fill:#f4a487"></path>
        </g>
        <g>
          <path d="M1284.05,2143.91c-0.82,4.95-1.91,8.49-3.39,9.62c-7.36,5.65-252.79,0.74-270.86,1.48
					c-18.03,0.74-24.3-1.87-26.52-8.49c-0.27-0.82-0.58-1.68-0.86-2.61c-1.95-6.77-1.91-17.21,28.85-35.32
					c35.01-20.64,108.68-39.45,108.68-39.45s23.21,17.72,71.18,19.9c48.01,2.22,94.58-7.36,94.58-7.36
					S1287.21,2124.09,1284.05,2143.91z" style="fill:#c1c7f3"></path>
        </g>
        <g>
          <path d="M1284.05,2143.91c-0.82,4.95-1.91,8.49-3.39,9.62c-7.36,5.65-252.79,0.74-270.86,1.48
					c-18.03,0.74-24.3-1.87-26.52-8.49c-0.27-0.82-0.58-1.68-0.86-2.61H1284.05z" style="fill:#251f20"></path>
        </g>
        <g>
          <g>
            <path d="M1073.7,2114.66c-0.89,0-1.7-0.62-1.9-1.53c-1.36-6.12-11.21-12.22-19.98-15.89
						c-0.97-0.4-1.61-1.57-1.25-2.55c0.37-0.98,1.46-1.49,2.45-1.16c0.08,0.03,0.16,0.06,0.24,0.1c6.18,2.59,20.29,9.43,22.34,18.66
						c0.23,1.05-0.43,2.09-1.48,2.32C1073.98,2114.64,1073.84,2114.66,1073.7,2114.66z" style="fill:#251f20"></path>
          </g>
        </g>
        <g>
          <g>
            <path d="M1092.18,2107.48c-0.89,0-1.7-0.62-1.9-1.53c-1.35-6.12-11.21-12.22-19.98-15.89
						c-0.97-0.4-1.61-1.57-1.25-2.55c0.37-0.98,1.46-1.49,2.45-1.16c0.08,0.03,0.16,0.06,0.24,0.1c6.18,2.59,20.29,9.43,22.34,18.66
						c0.23,1.05-0.43,2.09-1.48,2.32C1092.46,2107.47,1092.32,2107.48,1092.18,2107.48z" style="fill:#251f20"></path>
          </g>
        </g>
        <g>
          <g>
            <path d="M1110.66,2101.47c-0.89,0-1.7-0.62-1.9-1.53c-1.35-6.12-11.21-12.22-19.98-15.89
						c-0.97-0.4-1.61-1.57-1.25-2.55c0.37-0.98,1.46-1.5,2.45-1.16c0.08,0.03,0.17,0.06,0.24,0.1c6.18,2.59,20.29,9.43,22.34,18.66
						c0.23,1.05-0.43,2.09-1.48,2.32C1110.94,2101.45,1110.8,2101.47,1110.66,2101.47z" style="fill:#251f20"></path>
          </g>
        </g>
        <g>
          <path d="M1002.64,1442.61c-5.96,1.19-90.65-1.19-138.36,108.54c-47.71,109.73-22.05,436.64-22.05,436.64
					s147.29,21.4,195,14.83c0,0-0.97-215.58,31.72-300.13c32.69-84.55,85.17-61.88,85.17-61.88s172.95-212.21,166.99-215.24
					C1315.14,1422.34,1002.64,1442.61,1002.64,1442.61z" style="fill:#2b2525"></path>
        </g>
        <g>
          <path d="M1834.65,1547.82c-54.44,94.47-191.08,88.63-249.8,96.61c-58.72,8.02-201.78,3.74-224.17,49.65
					c-20.98,42.95-36.82,318.05-38.77,353.38c-0.12,2.12-1.82,3.77-3.95,3.81c-22.43,0.42-140.2,1.71-203.17-15.33
					c-1.71-0.46-2.89-1.99-2.96-3.76c-0.97-27.01-7.88-231.57,0.11-338.65c8.53-114.75,24.03-192.13,133.95-239.13
					c54.9-23.44,152.68-46.26,236.83-63.16c84.34-17.02,154.98-28.11,154.98-28.11l232.2-9.62c0,0,1.99,10.43,2.88,27.73
					C1874.61,1417.49,1871.49,1483.89,1834.65,1547.82z" style="fill:#3c3434"></path>
        </g>
        <g>
          <path d="M1872.78,1381.24c-37.23,16.59-93.77,34.3-172.35,41.24c-160.24,14.17-219.07-28.35-219.07-28.35
					s0.51-1.05,1.36-2.88c84.34-17.02,154.98-28.11,154.98-28.11l232.2-9.62C1869.89,1353.52,1871.88,1363.95,1872.78,1381.24z" style="fill:#482924"></path>
        </g>
        <g>
          <path d="M1272.49,818.75c0,0-73.78,80.86-107.93,189.49c-34.15,108.64,138.63,154.67,138.63,154.67
					s0.78-254.8-2.1-259.78S1272.49,818.75,1272.49,818.75z" style="fill:#e03c36"></path>
        </g>
        <g>
          <path d="M1879.67,1364.22c-9.85,3.86-70.36,20.13-187.49,28.31c-117.13,8.14-252.72,3.85-278.03-9.03
					c-20.37-10.36-62.97-43.19-86.45-89.64c-5.72-11.25-10.28-23.32-13.12-36.06c-14.56-65.22-43.3-265.64-43.73-283.67
					c-0.43-18.03,1.64-155.37,1.64-155.37s46.38-49.8,62.26-58.1c15.89-8.33,155.33-41.78,155.33-41.78s33.45-16.75,98.24-7.71
					c64.79,9,112.38,49.49,152.76,92.25c12.03,12.77,25.39,31.7,38.74,53.93c21.49,35.79,43.03,80.14,59.3,120.75
					c0.47,1.17,0.93,2.34,1.4,3.51c7.24,18.18,13.28,35.47,17.83,50.89c0.12,0.35,0.19,0.62,0.27,0.9
					c21.03,72.08,37.77,173.36,40.34,238.97C1901.55,1338.02,1889.56,1360.33,1879.67,1364.22z" style="fill:#f6443a"></path>
        </g>
        <g>
          <path d="M1879.67,1364.22c-9.85,3.86-70.36,20.13-187.49,28.31c-117.13,8.14-252.72,3.85-278.03-9.03
					c-20.37-10.36-62.97-43.19-86.45-89.64c51.63-22.23,108.99-26.24,164.21-37.03c55.41-10.79,112.85-30.96,147.27-75.7
					c25.89-33.57,34.89-76.17,38.71-117.52c3.58-38.51-10.59-76.98,35.4-95.01c20.56-8.02,43.53-6.85,65.38-3.66
					c14.76,2.14,1.95-69.55,1.17-107.59c21.49,35.79,43.03,80.14,59.3,120.75c0.47,1.17,0.93,2.34,1.4,3.51
					c8.84,24.69,15.81,44.43,17.83,50.89c0.12,0.35,0.19,0.62,0.27,0.9c21.03,72.08,37.77,173.36,40.34,238.97
					C1901.55,1338.02,1889.56,1360.33,1879.67,1364.22z" style="fill:#d13733"></path>
        </g>
        <g>
          <polygon points="1540.63 1365.49 1057.64 1136.97 254.43 1136.97 254.43 1365.49" style="fill:#b1673c"></polygon>
        </g>
        <g>
          <path d="M1597.7,822.89c0,0-35.86,16.56-35.86,76.63c0,60.06,29.58,188.26,29.58,188.26s39.44-0.9,42.13,0
					S1597.7,822.89,1597.7,822.89z" style="fill:#d13733"></path>
        </g>
        <g>
          <rect width="75.7" height="562.43" x="361.03" y="1425.37" style="fill:#814322"></rect>
        </g>
        <g>
          <path d="M1495.45,720.25c0,0-105.21,135.47-120.01,148.83c0,0-13.67-23.83-25.86-46.18
					c-8.33-15.26-16-29.83-18.26-35.63c-1.48-3.86,3.82-15.81,12.34-31.23c23.05-41.7,69.7-108.56,69.7-108.56l36.99,16.71
					C1450.36,664.17,1482.56,710.24,1495.45,720.25z" style="fill:#f4a487"></path>
        </g>
        <g>
          <path d="M1407.72,742.91c0,0-34.58,68.34-58.14,79.98c-8.33-15.26-16-29.83-18.26-35.63
					c-1.48-3.86,3.82-15.81,12.34-31.23c10.12-9.39,20.72-19.16,25.89-22.47C1377.04,728.73,1407.72,742.91,1407.72,742.91z" style="fill:#df6f5c"></path>
        </g>
        <g>
          <path d="M1165.69,571.95c0,0,3.4,74.23,25.47,119.72s49.44,101.25,104.16,101.93
					c54.73,0.68,105.69-38.65,121.43-61.57c15.73-22.92,22.92-119.38,21.89-119.03s-84.49-105.01-92.7-106.72
					c-8.21-1.71-110.59,7.18-124.73,15.73s-44.58,33.52-47.32,38.31S1165.69,571.95,1165.69,571.95z" style="fill:#f4a487"></path>
        </g>
        <g>
          <path d="M1416.67,662.71c16.88,10.32,34.75,3.91,34.75,3.91s5.91-6.3-5.82-62.1
					c-11.72-55.8-23.44-104.09-52.98-125.66s-50.17-15.94-50.17-15.94c-9.85-25.32-70.8-25.32-121.23-4.69
					c-50.43,20.63-51.79,37.04-51.79,37.04s-19.69,6.56-38.92,27.2c-19.22,20.63-5.16,62.83,55.33,51.58
					c60.49-11.25,106.44-54.86,106.44-54.86c15.94,54.39,60.49,68.46,60.49,68.46s16.45,40.57,22.98,51.11c0,0,1.93,5.5,8.16,3.19
					c6.23-2.32,13.47-8.54,14.05-10.14c0.58-1.59,29.11-7.82,27.95-7.39S1416.67,662.71,1416.67,662.71z" style="fill:#4e342d"></path>
        </g>
        <g>
          <path d="M1246.6,610.33c0,0,7.92,10.43,24.33,11.78c16.41,1.35,22.01-2.12,19.89-11.78s-15.79-2.08-23.68-6.44
					c-7.25-4.01-14.28-9.83-19.49-4.62S1246.6,610.33,1246.6,610.33z" style="fill:#472a24"></path>
        </g>
        <g>
          <path d="M1196.91,617.62c0,0-2.25,9.85-13.36,16.01c-11.11,6.17-16.15,5.5-17.73-1.96
					c-1.58-7.46,10.44-6.48,14.6-12.05c3.82-5.12,6.91-11.45,12.23-9.44C1197.98,612.19,1196.91,617.62,1196.91,617.62z" style="fill:#472a24"></path>
        </g>
        <g>
          <path d="M1274.67,664.02c-4.21,1.36-9.31-2.72-11.41-9.19c-2.14-6.42-0.43-12.77,3.74-14.13
					c4.21-1.4,9.35,2.73,11.45,9.15C1280.55,656.31,1278.87,662.62,1274.67,664.02z" style="fill:#271c19"></path>
        </g>
        <g>
          <path d="M1200.83,677c-4.21,1.36-9.31-2.72-11.41-9.19c-2.14-6.42-0.43-12.77,3.74-14.13
					c4.21-1.4,9.34,2.73,11.45,9.15C1206.71,669.29,1205.03,675.6,1200.83,677z" style="fill:#271c19"></path>
        </g>
        <g>
          <g>
            <g>
              <path d="M1234.43,728.16c-3.81,0-7.17-1.65-9.82-4.83c-10.87-13.09-6.25-60.13-6.05-62.13
							c0.1-0.96,0.94-1.65,1.91-1.56c0.96,0.1,1.65,0.95,1.56,1.91c-0.05,0.47-4.68,47.58,5.26,59.55c2.37,2.86,5.24,3.99,8.74,3.45
							c8.5-1.3,17.22-11.56,17.95-13.34c0.37-0.89,1.39-1.31,2.27-0.95c0.89,0.37,1.31,1.38,0.95,2.27
							c-1.16,2.81-10.96,13.98-20.65,15.45C1235.83,728.11,1235.12,728.16,1234.43,728.16z" style="fill:#df6f5c"></path>
            </g>
          </g>
        </g>
        <g>
          <g>
            <path d="M1262.09,760.65c-3.81,0-6.22-0.43-6.3-0.44c-1.06-0.2-1.75-1.22-1.55-2.27c0.2-1.06,1.22-1.75,2.27-1.56
						c1.03,0.19,25.38,4.43,41.06-17.37c0.63-0.87,1.84-1.07,2.72-0.44c0.87,0.63,1.07,1.84,0.44,2.72
						C1288.6,758.14,1271.29,760.65,1262.09,760.65z" style="fill:#df6f5c"></path>
          </g>
        </g>
        <g>
          <path d="M1397.94,631.81c0,0-9.7-19.26,0-34.59c11.55-18.26,36.08-21.19,52.1,7.18
					c16.03,28.38-18.03,64.1-32.72,66.44C1402.64,673.17,1397.94,631.81,1397.94,631.81z" style="fill:#f4a487"></path>
        </g>
        <g>
          <path d="M1427.31,606.63c-8.67,7.46-12.18,18.43-10.54,29.63C1410.65,625.77,1415.82,610.63,1427.31,606.63
					L1427.31,606.63z" style="fill:#df6f5c"></path>
        </g>
        <g>
          <path d="M1416.45,620.19c6.23-0.1,12.23,4.88,13.28,11.01C1424.97,627.17,1421.31,624.09,1416.45,620.19
					L1416.45,620.19z" style="fill:#df6f5c"></path>
        </g>
        <g>
          <path d="M1375.44,869.07c17.82,10.05,43.39,25.06,61.18,35.78c0,0-3.01,0.76-3.01,0.76
					c8.99-16.9,18.31-33.61,27.69-50.28c18.15-32.31,38.58-67.36,58.2-98.96c10.13-16.23,20.12-32.64,31.73-47.88
					c-26.94,45.54-58.16,103.67-85,149.65c-9.54,16.58-19.09,33.15-28.89,49.58c-0.58,1.08-1.98,1.45-3.01,0.77
					C1416.98,896.91,1392.25,880.97,1375.44,869.07L1375.44,869.07z" style="fill:#d13733"></path>
        </g>
        <g>
          <path d="M1317.47,784.56c5.55,40.45,8.54,81.18,10.63,121.94c0,0-4.39-1.85-4.39-1.85
					c16.61-13.5,33.31-27.1,51.73-38.08c-14.36,11.74-34.09,29.76-48.27,42.12c-1.57,1.48-4.35,0.29-4.39-1.85
					C1319.56,866.16,1317.23,825.39,1317.47,784.56L1317.47,784.56z" style="fill:#d13733"></path>
        </g>
        <g>
          <rect width="93.3" height="728.28" x="1367.11" y="1451.33" style="fill:#864722"></rect>
        </g>
        <g>
          <rect width="93.3" height="23.17" x="1367.11" y="1451.33" style="fill:#5f2f1b"></rect>
        </g>
        <g>
          <rect width="1286.21" height="92.19" x="254.43" y="1365.49" style="fill:#814322"></rect>
        </g>
        <g>
          <polygon points="1308.43 1229.65 1129.62 1263.02 1128.53 1263.22 1125.57 1262.05 985.58 1206.25 966.15 948.08 1099.67 1008.24 1101.31 1008.98 1103.49 1008.48 1257.07 972.65" style="fill:#fff"></polygon>
        </g>
        <g>
          <g>
            <path d="M1129.62,1263.02l-1.09,0.2l-2.96-1.17c-7.83-73.4-23.56-221.25-25.89-253.81l1.64,0.74l2.18-0.51
						C1105.98,1040.44,1122.34,1195.03,1129.62,1263.02z" style="fill:#eae9e8"></path>
          </g>
        </g>
        <g>
          <path d="M1184.76,1048.44c1.03,3.63,0.96,7.57-0.52,10.98l-0.43,1.1l-10.41,24.69l-21.86-15.48l-0.95-0.71
					c-6.06-4.26-8.63-13.27-5.73-20.09c1.43-3.4,3.95-5.62,6.9-6.46c2.91-0.83,6.22-0.28,9.23,1.86l0.93,0.66l0.45-1.06
					c2.87-6.8,10.11-8.87,16.14-4.6C1181.57,1041.46,1183.72,1044.77,1184.76,1048.44z" style="fill:#e02420"></path>
        </g>
        <g>
          <path d="M1817.44,1205.63c-11.6,61.45-54.16,141.27-160.12,131.11c-105.91-10.16-161.05-48.4-220.09-80.8
					c-59.03-32.4-98.2-63.67-98.2-63.67s-38.2-2.1-54.67-27.26c0,0-40.61,19.35-56.58,17.41c-15.96-1.95,0-28.08,0-28.08
					s-18.89,9.19-30.49,2.92c-11.6-6.31-3.85-25.15,18.89-36.29c0,0-32.13,2.92-25.04-13.05c7.13-15.96,70.48-47.43,89.37-52.72
					c18.85-5.34,40.15,4.32,86.6,41.12l254.24,53.03l0.66,0.16l-0.54-4.36l-10.55-83.68l205.09-14.52
					C1816,1046.95,1829.05,1144.18,1817.44,1205.63z" style="fill:#f4a487"></path>
        </g>
        <g>
          <g>
            <polygon points="1652.69 1159.72 1651.05 1163.22 1621.34 1149.36 1622.01 1149.51 1621.46 1145.15" style="fill:#df6f5c"></polygon>
          </g>
        </g>
        <g>
          <g>
            <path d="M1216.17,1122.92c-0.77,0-1.5-0.46-1.81-1.22c-0.4-1,0.08-2.13,1.08-2.53l56.06-22.63
						c0.99-0.4,2.13,0.08,2.53,1.08c0.4,1-0.08,2.13-1.08,2.53l-56.06,22.62C1216.66,1122.88,1216.41,1122.92,1216.17,1122.92z" style="fill:#df6f5c"></path>
          </g>
        </g>
        <g>
          <g>
            <path d="M1227.78,1156.3c-0.75,0-1.46-0.43-1.78-1.15c-0.44-0.98,0-2.13,0.98-2.57l44.45-19.83
						c0.98-0.44,2.13,0,2.57,0.98c0.44,0.98,0,2.13-0.98,2.57l-44.45,19.83C1228.31,1156.25,1228.04,1156.3,1227.78,1156.3z" style="fill:#df6f5c"></path>
          </g>
        </g>
        <g>
          <path d="M1823.59,1052.59l-226.59,22.98c-4.21-13.01-7.75-28.08-10.71-44.16c-0.23-1.25-0.47-2.57-0.7-3.85
					c-8.14-45.68-11.84-98.87-13.51-136.56c-1.67-37.03,16.86-72.11,48.56-91.35c38.08-23.13,91.7-36.41,138.43,23.25
					c24.8,31.7,44.04,115.3,54.83,172.38c0.27,1.29,0.51,2.57,0.74,3.82C1820.44,1030.24,1823.59,1052.59,1823.59,1052.59z" style="fill:#f6443a"></path>
        </g>
        <g>
          <g>
            <path d="M1814.64,999.09l-228.34,32.32c-0.23-1.25-0.47-2.57-0.7-3.85l228.3-32.28
						C1814.17,996.56,1814.41,997.85,1814.64,999.09z" style="fill:#d13733"></path>
          </g>
        </g>
        <g>
          <path d="M970.26,1002.48l1.4,18.61c0,0,44.81,25.89,56.68,40.79c11.86,14.9,9.93,25.66-9.11,26.21
					c0,0,20.42,14.62,22.9,24.01c2.48,9.38-4.41,21.25-22.35,16.56c0,0,14.9,12.42,9.66,24.01c-5.24,11.59-33.94,0-33.94,0
					s-7.73,13.8-32.01,9.38c-24.28-4.41-42.22-19.87-40.56-60.7c1.66-40.84,17.38-96.72,48.84-98.85" style="fill:#f4a487"></path>
        </g>
        <g>
          <g>
            <path d="M1019.23,1089.55c-0.21,0-0.42-0.04-0.62-0.14c-2.27-1.07-55.69-26.24-61.71-33.64
						c-0.51-0.63-0.42-1.54,0.21-2.05c0.62-0.51,1.55-0.42,2.05,0.21c4.65,5.71,45.39,25.64,60.69,32.84
						c0.73,0.34,1.04,1.21,0.7,1.94C1020.31,1089.24,1019.78,1089.55,1019.23,1089.55z" style="fill:#df6f5c"></path>
          </g>
        </g>
        <g>
          <g>
            <path d="M1019.78,1130.11c-0.23,0-0.47-0.06-0.69-0.18c-2.43-1.31-59.58-32.23-66.85-38.69
						c-0.6-0.54-0.66-1.46-0.12-2.06c0.54-0.61,1.46-0.66,2.06-0.12c7.01,6.23,65.7,37.98,66.29,38.3c0.71,0.38,0.97,1.27,0.59,1.98
						C1020.81,1129.83,1020.3,1130.11,1019.78,1130.11z" style="fill:#df6f5c"></path>
          </g>
        </g>
        <g>
          <g>
            <path d="M995.5,1154.11c-0.23,0-0.47-0.06-0.68-0.17c-1.75-0.93-42.89-22.88-49.42-30.77
						c-0.51-0.62-0.43-1.54,0.19-2.06c0.62-0.51,1.54-0.43,2.06,0.19c6.16,7.45,48.11,29.82,48.54,30.05
						c0.71,0.38,0.98,1.26,0.6,1.98C996.53,1153.83,996.03,1154.11,995.5,1154.11z" style="fill:#df6f5c"></path>
          </g>
        </g>
        <g>
          <path d="M672.35,2136.35c-0.74,3.89-2.61,11.41-20.99,17.76c-1.44,0.51-3.04,1.01-4.75,1.52
					c-0.35,0.12-0.7,0.19-1.09,0.31c-15.5,4.36-57.59,10.94-85.2,15.03c-1.56,0.24-3.04,0.47-4.52,0.66
					c-12.5,1.87-21.11,3.04-21.11,3.04l-2.53-29.05c0,0,7.4-1.56,18.54-3.82c1.36-0.31,2.76-0.58,4.24-0.9
					c25.39-5.22,65.5-13.28,85.28-16.39c1.64-0.27,3.11-0.51,4.44-0.7c3.12-0.43,5.37-0.66,6.5-0.62
					C661.88,2123.46,673.17,2132.07,672.35,2136.35z" style="fill:#f4b238"></path>
        </g>
        <g>
          <g>
            <path d="M560.33,2170.97c-1.56,0.24-3.04,0.47-4.52,0.66c6.78-14.21-1.67-25.93-5.1-29.83
						c1.36-0.31,2.76-0.58,4.24-0.9C559,2146.28,565.43,2157.61,560.33,2170.97z" style="fill:#4c120c"></path>
          </g>
        </g>
        <g>
          <g>
            <path d="M651.36,2154.11c-1.44,0.51-3.04,1.01-4.75,1.52c7.94-17.02-5.88-30.45-6.46-31.04l0.08-0.08
						c1.64-0.27,3.11-0.51,4.44-0.7C648.41,2128.37,656.19,2140.01,651.36,2154.11z" style="fill:#4c120c"></path>
          </g>
        </g>
        <g>
          <path d="M534.7,2174.67c-5.72,0.51-10.9-5.61-11.6-13.63c-0.7-8.02,3.35-14.91,9.07-15.42
					c5.72-0.51,10.94,5.61,11.64,13.63C544.52,2167.27,540.43,2174.16,534.7,2174.67z" style="fill:#4c120c"></path>
        </g>
        <g>
          <path d="M668.63,1993.67c0.39,3.94,0.72,11.68-15.13,22.96c-1.24,0.89-2.63,1.83-4.13,2.8
					c-0.3,0.21-0.62,0.38-0.96,0.6c-13.64,8.56-52.16,26.75-77.5,38.46c-1.43,0.67-2.78,1.31-4.15,1.91
					c-11.46,5.32-19.39,8.87-19.39,8.87l-10.62-27.15c0,0,6.66-3.58,16.71-8.89c1.22-0.68,2.49-1.34,3.82-2.06
					c22.88-12.17,59.09-31.22,77.19-39.79c1.49-0.72,2.85-1.36,4.06-1.93c2.87-1.29,4.97-2.15,6.06-2.43
					C654.94,1984.26,668.2,1989.33,668.63,1993.67z" style="fill:#ec3a54"></path>
        </g>
        <g>
          <g>
            <path d="M570.92,2058.49c-1.43,0.67-2.78,1.31-4.15,1.91c2.49-15.55-8.92-24.41-13.31-27.18
						c1.22-0.68,2.49-1.34,3.82-2.06C562.68,2035.18,572.05,2044.24,570.92,2058.49z" style="fill:#4c120c"></path>
          </g>
        </g>
        <g>
          <g>
            <path d="M653.5,2016.63c-1.24,0.89-2.63,1.83-4.13,2.8c2.82-18.57-14.23-27.56-14.96-27.95l0.05-0.1
						c1.49-0.72,2.85-1.36,4.06-1.93C643.4,1992.77,654.16,2001.74,653.5,2016.63z" style="fill:#4c120c"></path>
          </g>
        </g>
        <g>
          <path d="M547.38,2069.27c-5.35,2.1-12.04-2.3-14.98-9.8c-2.94-7.5-1-15.25,4.35-17.35
					c5.35-2.1,12.08,2.29,15.02,9.79C554.71,2059.4,552.73,2067.17,547.38,2069.27z" style="fill:#4c120c"></path>
        </g>
        <g>
          <path d="M1981.77,809.77v1281.14h-51.79V809.77c0-14.29,11.6-25.89,25.89-25.89c7.17,0,13.63,2.88,18.3,7.59
					C1978.85,796.14,1981.77,802.64,1981.77,809.77z" style="fill:#834222"></path>
        </g>
      </g>
    </g>
    <g>
      <polygon points="923.27 1136.98 602.11 1136.98 255.34 1365.49 1067.82 1365.49" style="fill:#b1673c"></polygon>
    </g>
    <g>
      <rect width="812.47" height="92.19" x="255.34" y="1365.49" style="fill:#814322"></rect>
    </g>
    <g>
      <g>
        <path d="M763.13,1293.11c0,26.78-59.93,48.49-133.85,48.49c-73.95,0-133.85-21.72-133.85-48.49
				c0-26.74,59.91-48.46,133.85-48.46C703.2,1244.65,763.13,1266.37,763.13,1293.11z" style="fill:#924b28"></path>
      </g>
      <g>
        <path d="M764.77,1278.54c0,26.78-74.69,48.49-166.82,48.49c-92.16,0-166.82-21.72-166.82-48.49
				c0-26.74,74.66-48.46,166.82-48.46C690.08,1230.08,764.77,1251.8,764.77,1278.54z" style="fill:#edeceb"></path>
      </g>
      <g>
        <g>
          <path d="M597.95,1309.2c-63.27,0-112.84-13.1-112.84-29.83c0-16.72,49.56-29.81,112.84-29.81
					c63.27,0,112.84,13.09,112.84,29.81C710.79,1296.09,661.22,1309.2,597.95,1309.2z M597.95,1252.09
					c-65.98,0-110.31,14.11-110.31,27.28c0,13.18,44.32,27.3,110.31,27.3s110.31-14.12,110.31-27.3
					C708.26,1266.19,663.93,1252.09,597.95,1252.09z" style="fill:#d8d7d6"></path>
        </g>
      </g>
      <g>
        <g>
          <path d="M634.81,1282.79c-37.83,1.59-64.27-11.97-64.27-11.97s-16.25-4.22-14.47-22.29
					c0.24-2.63,0.88-5.56,2.02-8.83c8.9-25.6,52.23-33.45,73.92-27.31c21.72,6.14,52.07,15.85,58.17,36.72
					c0.24,0.84,0.44,1.65,0.61,2.46C694.56,1270.86,673.35,1281.21,634.81,1282.79z" style="fill:#bc6428"></path>
        </g>
        <g>
          <path d="M634.81,1282.79c-37.83,1.59-64.27-11.97-64.27-11.97s-16.25-4.22-14.47-22.29
					c1.96,5.13,10.93,13.32,46.23,17.74c46.47,5.8,78.23-4.49,88.48-14.7C694.56,1270.86,673.35,1281.21,634.81,1282.79z" style="fill:#ad561c"></path>
        </g>
        <g>
          <path d="M632.99,1249.98c0,0.78-1.18,1.38-2.66,1.38c-1.45,0-2.63-0.61-2.63-1.38s1.18-1.38,2.63-1.38
					C631.81,1248.6,632.99,1249.21,632.99,1249.98z" style="fill:#421202"></path>
        </g>
        <g>
          <path d="M657.9,1244.65c0,0.78-1.18,1.38-2.66,1.38c-1.45,0-2.63-0.61-2.63-1.38s1.18-1.38,2.63-1.38
					C656.72,1243.27,657.9,1243.88,657.9,1244.65z" style="fill:#421202"></path>
        </g>
        <g>
          <path d="M660.55,1234.61c0,0.78-1.18,1.38-2.66,1.38c-1.45,0-2.63-0.61-2.63-1.38s1.18-1.38,2.63-1.38
					C659.37,1233.23,660.55,1233.84,660.55,1234.61z" style="fill:#421202"></path>
        </g>
        <g>
          <path d="M635.94,1224.82c0,0.78-1.18,1.38-2.66,1.38c-1.45,0-2.63-0.61-2.63-1.38s1.18-1.38,2.63-1.38
					C634.76,1223.44,635.94,1224.04,635.94,1224.82z" style="fill:#421202"></path>
        </g>
        <g>
          <path d="M613.13,1219.19c0,0.78-1.18,1.38-2.66,1.38c-1.45,0-2.63-0.61-2.63-1.38s1.18-1.38,2.63-1.38
					C611.95,1217.81,613.13,1218.42,613.13,1219.19z" style="fill:#421202"></path>
        </g>
        <g>
          <path d="M597.14,1245.28c0,0.78-1.18,1.38-2.66,1.38c-1.45,0-2.63-0.61-2.63-1.38s1.18-1.38,2.63-1.38
					C595.96,1243.9,597.14,1244.5,597.14,1245.28z" style="fill:#421202"></path>
        </g>
        <g>
          <path d="M574.61,1237.38c0,0.78-1.18,1.38-2.66,1.38c-1.45,0-2.63-0.61-2.63-1.38s1.18-1.38,2.63-1.38
					C573.43,1235.99,574.61,1236.6,574.61,1237.38z" style="fill:#421202"></path>
        </g>
        <g>
          <path d="M586.15,1226.2c0,0.78-1.18,1.38-2.66,1.38c-1.45,0-2.63-0.61-2.63-1.38s1.18-1.38,2.63-1.38
					C584.97,1224.82,586.15,1225.43,586.15,1226.2z" style="fill:#421202"></path>
        </g>
        <g>
          <path d="M623.14,1233.23c0,0.78-1.18,1.38-2.66,1.38c-1.45,0-2.63-0.61-2.63-1.38s1.18-1.38,2.63-1.38
					C621.96,1231.85,623.14,1232.45,623.14,1233.23z" style="fill:#421202"></path>
        </g>
      </g>
      <g>
        <g>
          <path d="M597.83,1299.99c-37.83,1.59-64.27-11.97-64.27-11.97s-16.25-4.22-14.47-22.29
					c0.24-2.63,0.88-5.56,2.02-8.83c8.9-25.6,52.23-33.45,73.92-27.31c21.72,6.14,52.07,15.85,58.17,36.72
					c0.24,0.84,0.44,1.65,0.61,2.46C657.59,1288.05,636.38,1298.4,597.83,1299.99z" style="fill:#cb742e"></path>
        </g>
        <g>
          <path d="M597.83,1299.99c-37.83,1.59-64.27-11.97-64.27-11.97s-16.25-4.22-14.47-22.29
					c1.96,5.13,10.93,13.32,46.23,17.74c46.47,5.8,78.23-4.49,88.48-14.7C657.59,1288.05,636.38,1298.4,597.83,1299.99z" style="fill:#b66320"></path>
        </g>
        <g>
          <path d="M596.01,1267.18c0,0.78-1.18,1.38-2.66,1.38c-1.45,0-2.63-0.61-2.63-1.38s1.18-1.38,2.63-1.38
					C594.83,1265.8,596.01,1266.4,596.01,1267.18z" style="fill:#421202"></path>
        </g>
        <g>
          <path d="M620.93,1261.85c0,0.78-1.18,1.38-2.66,1.38c-1.45,0-2.63-0.61-2.63-1.38s1.18-1.38,2.63-1.38
					C619.75,1260.47,620.93,1261.07,620.93,1261.85z" style="fill:#421202"></path>
        </g>
        <g>
          <path d="M623.57,1251.81c0,0.78-1.18,1.38-2.66,1.38c-1.45,0-2.63-0.61-2.63-1.38s1.18-1.38,2.63-1.38
					C622.39,1250.43,623.57,1251.03,623.57,1251.81z" style="fill:#421202"></path>
        </g>
        <g>
          <path d="M598.96,1242.02c0,0.78-1.18,1.38-2.66,1.38c-1.45,0-2.63-0.61-2.63-1.38s1.18-1.38,2.63-1.38
					C597.78,1240.63,598.96,1241.24,598.96,1242.02z" style="fill:#421202"></path>
        </g>
        <g>
          <path d="M576.15,1236.39c0,0.78-1.18,1.38-2.66,1.38c-1.45,0-2.63-0.61-2.63-1.38s1.18-1.38,2.63-1.38
					C574.97,1235.01,576.15,1235.61,576.15,1236.39z" style="fill:#421202"></path>
        </g>
        <g>
          <path d="M560.16,1262.48c0,0.78-1.18,1.38-2.66,1.38c-1.45,0-2.63-0.61-2.63-1.38s1.18-1.38,2.63-1.38
					C558.98,1261.09,560.16,1261.7,560.16,1262.48z" style="fill:#421202"></path>
        </g>
        <g>
          <path d="M537.64,1254.57c0,0.78-1.18,1.38-2.66,1.38c-1.45,0-2.63-0.61-2.63-1.38s1.18-1.38,2.63-1.38
					C536.46,1253.19,537.64,1253.8,537.64,1254.57z" style="fill:#421202"></path>
        </g>
        <g>
          <path d="M549.17,1243.4c0,0.78-1.18,1.38-2.66,1.38c-1.45,0-2.63-0.61-2.63-1.38s1.18-1.38,2.63-1.38
					C547.99,1242.02,549.17,1242.62,549.17,1243.4z" style="fill:#421202"></path>
        </g>
        <g>
          <path d="M586.16,1250.42c0,0.78-1.18,1.38-2.66,1.38c-1.45,0-2.63-0.61-2.63-1.38s1.18-1.38,2.63-1.38
					C584.98,1249.04,586.16,1249.65,586.16,1250.42z" style="fill:#421202"></path>
        </g>
      </g>
    </g>
    <g>
      <path d="M721.95,1215.61c0,11.34,30.98,20.5,69.2,20.5s69.23-9.16,69.23-20.5c0-11.31-31.02-20.47-69.23-20.47
			S721.95,1204.31,721.95,1215.61z" style="fill:#924b28"></path>
    </g>
    <g>
      <g>
        <g>
          <path d="M751.82,1195.14c1.55,0,3.1-0.12,4.68-0.38l-1.53-9.35c-12.14,1.98-25.02-8.29-32.41-19.36
					c-7.26-10.87-9.47-22.49-5.5-28.9c2.75-4.43,6.11-6.96,10.29-7.75c6.97-1.31,14.08,2.66,15.19,3.5
					c-0.02-0.02-0.44-0.33-0.83-0.93l7.88-5.26c-1.49-2.23-10.54-7.2-19.8-7.05c-6.01,0.1-14.5,2.35-20.79,12.49
					c-6.08,9.81-3.91,24.82,5.67,39.16C722.33,1182.77,736.26,1195.13,751.82,1195.14z" style="fill:#f4be78"></path>
        </g>
      </g>
      <g>
        <path d="M743.99,1107.14c0,0-3.63,2.73-3.45,12.74c0.18,10.01,2.44,68.18,13.54,89.08
				c11.1,20.9,63.22,14.33,73.02,12.85c9.8-1.48,18.99-6.94,24.97-29.04c5.95-22,12.58-81.43,4.64-85.63
				S743.99,1107.14,743.99,1107.14z" style="fill:#f4be78"></path>
      </g>
      <g>
        <g>
          <path d="M812.86,1149.86c0.52-32.75,0.04-33.7-0.17-34.11l-1.41,0.71l-1.52,0.41c0.31,1.69,0.12,21.1-0.06,32.94
					L812.86,1149.86z" style="fill:#fffffb"></path>
        </g>
      </g>
      <g>
        <path d="M743.99,1108.8c0,1.42,1.36,2.78,3.82,4.01c8.21,4.14,28.77,7.07,52.84,7.07c24.1,0,44.66-2.94,52.87-7.07
				c2.46-1.23,3.82-2.59,3.82-4.01c0-6.13-25.39-11.09-56.69-11.09C769.35,1097.71,743.99,1102.67,743.99,1108.8z" style="fill:#dfad61"></path>
      </g>
      <g>
        <path d="M747.81,1112.81c8.21,4.14,28.77,7.07,52.84,7.07c24.1,0,44.66-2.94,52.87-7.07
				C853.52,1112.81,813.75,1096.54,747.81,1112.81z" style="fill:#a12219"></path>
      </g>
      <g>
        <polygon points="825.09 1146.65 797.23 1146.65 796.24 1175.59 824.77 1175.59" style="fill:#fffffb"></polygon>
      </g>
    </g>
    <g>
      <path d="M822.95,925.93c8.51,13.36-2.16,27.43-9.98,38.58c-10.51,13.9-10.25,28.03-3.65,43.85
			c5.13,12.93,11.45,26.38,4.22,39.52c-4.68,9.23-13.12,18.47-14.15,29.67c-0.43,3.75,0.19,7.64,1.93,10.87
			c-2.24-7.12,0.35-14.3,3.96-20.25c18.99-25.63,22.54-31.03,9.93-62.06c-5.95-13.77-6.84-25.89,1.91-38.99
			C824.47,955.53,834.23,938.1,822.95,925.93L822.95,925.93z" style="fill:#fff"></path>
    </g>
    <g>
      <path d="M848.06,970.12c6.63,3.65,8.33,11.46,7.26,18.23c-2.38,11.97-12.33,20.57-16.87,31.93
			c-8.08,18.59-7.86,41.24,2.27,58.82c-2.54-9.61-3.57-19.28-3.03-28.81c0.6-9.52,2.76-18.87,6.54-27.49
			c3.39-8.68,10.15-16.15,13.64-26.23C861.52,987.34,858.86,972.78,848.06,970.12L848.06,970.12z" style="fill:#fff"></path>
    </g>
    <g>
      <path d="M777.57,965.54c13.64,24.19-7.71,47.25-10.82,71.45c-2.16,15.3,0.69,31.71,8.86,44.73
			c-2.96-9.7-4.54-19.52-4.4-29.29c0.15-9.79,1.9-19.29,5.33-28.48C783.16,1006.44,793.37,981.46,777.57,965.54L777.57,965.54z" style="fill:#fff"></path>
    </g>
    <g>
      <path d="M1033.41,1273.63c-0.74,3.89-2.61,11.41-20.99,17.76c-1.44,0.51-3.04,1.01-4.75,1.52
			c-0.35,0.12-0.7,0.19-1.09,0.31c-15.5,4.36-57.59,10.94-85.2,15.03c-1.56,0.24-3.04,0.47-4.52,0.66
			c-12.5,1.87-21.11,3.04-21.11,3.04l-2.53-29.05c0,0,7.4-1.56,18.54-3.82c1.36-0.31,2.76-0.58,4.24-0.9
			c25.39-5.22,65.5-13.28,85.28-16.39c1.64-0.27,3.11-0.51,4.44-0.7c3.12-0.43,5.37-0.66,6.5-0.62
			C1022.94,1260.74,1034.23,1269.35,1033.41,1273.63z" style="fill:#f4b238"></path>
    </g>
    <g>
      <g>
        <path d="M921.38,1308.25c-1.56,0.24-3.04,0.47-4.52,0.66c6.78-14.21-1.67-25.93-5.1-29.83
				c1.36-0.31,2.76-0.58,4.24-0.9C920.06,1283.56,926.48,1294.89,921.38,1308.25z" style="fill:#4c120c"></path>
      </g>
    </g>
    <g>
      <g>
        <path d="M1012.42,1291.39c-1.44,0.51-3.04,1.01-4.75,1.52c7.94-17.02-5.88-30.45-6.46-31.04l0.08-0.08
				c1.64-0.27,3.11-0.51,4.44-0.7C1009.46,1265.65,1017.25,1277.29,1012.42,1291.39z" style="fill:#4c120c"></path>
      </g>
    </g>
    <g>
      <path d="M895.76,1311.95c-5.72,0.51-10.9-5.61-11.6-13.63s3.35-14.91,9.07-15.42c5.72-0.51,10.94,5.61,11.64,13.63
			C905.57,1304.55,901.49,1311.44,895.76,1311.95z" style="fill:#4c120c"></path>
    </g>
  </g>
</svg>