<svg xmlns="http://www.w3.org/2000/svg" viewBox="0 0 33.38 23.3" id="notification">
  <g fill="#f18574" class="color000000 svgShape">
    <g fill="#f18574" class="color000000 svgShape">
      <path d="M18.34,6.78a8.87,8.87,0,0,1,.15-1.56H6.05a6.05,6.05,0,0,0-6,6.05v6A6.05,6.05,0,0,0,6.05,23.3H21.76a6,6,0,0,0,6-6.05V14.94a7.88,7.88,0,0,1-1.2.1A8.26,8.26,0,0,1,18.34,6.78Zm3.42,13.67H6.05a3.2,3.2,0,0,1-3.2-3.2v-6a3.2,3.2,0,0,1,3.2-3.2h9.52a11.13,11.13,0,0,0,9.34,9.69A3.19,3.19,0,0,1,21.76,20.45Z" fill="#f18574" class="color000000 svgShape"></path>
      <path d="M26.44,0a6.94,6.94,0,1,0,6.94,6.94A6.94,6.94,0,0,0,26.44,0Z" fill="#f18574" class="color000000 svgShape"></path>
    </g>
  </g>
</svg>