<svg xmlns="http://www.w3.org/2000/svg" width="32" height="32" version="1" id="food"><path fill="#f37a5d" d="M32 16c0 8.836-7.164 16-16 16S0 24.836 0 16 7.164 0 16 0s16 7.164 16 16z"></path><path d="M17.71 31.828c.505-.054 1.026-.052 1.515-.152a15.887 15.887 0 0 0 5.72-2.408 16.083 16.083 0 0 0 2.367-1.956 16.083 16.083 0 0 0 1.956-2.367c.289-.428.494-.91.742-1.367l-8.637-8.639-.047-.04a7.316 7.316 0 0 0-.885-.739 7.479 7.479 0 0 0-.85-.525c-.019-.01-.036-.025-.056-.035l-2.328-2.329c-.01-.01-.024-.018-.035-.029l-.045-.039a1.584 1.584 0 0 0-.393-.26 1.396 1.396 0 0 0-.183-.064c-.027-.008-.051-.021-.078-.027a1.35 1.35 0 0 0-1.64 1.326c-.001.301.074.602.3.828-3.467.527-6.03 3.39-6.03 6.933 0 .114 0 .209.01.303s.029.188.067.301H7.145c-.151 0-.303.152-.303.303 0 .075.037.15.094.207L17.71 31.828z" opacity=".25"></path><path fill="#fff" d="M16.188 10.82c-.753 0-1.356.603-1.356 1.357 0 .301.075.603.301.829-3.467.528-6.03 3.392-6.03 6.934 0 .226 0 .377.076.603H7.144c-.151 0-.302.151-.302.302 0 .15.15.301.302.301h2.26c5.126 0 12.513.076 15.452 0 .151 0 .302-.15.302-.301 0-.15-.15-.302-.302-.302H23.35c0-.226.075-.452.075-.678 0-3.543-2.638-6.407-6.105-7.01.15-.226.302-.527.302-.829-.076-.527-.679-1.206-1.433-1.206zm2.94 4.824h.075c.83.15 1.583.754 1.734 1.508.075.15-.075.376-.226.376-.15.076-.377-.075-.377-.226-.15-.603-.678-.98-1.281-1.13-.227.075-.227-.453.075-.528z"></path></svg>