<svg xmlns="http://www.w3.org/2000/svg" enable-background="new 0 0 64 64" viewBox="0 0 64 64" id="coffee"><circle cx="32" cy="32" r="32" fill="#ffc42e"></circle><path d="M24.8,12.92c-0.82,0.72-1.85,1.62-1.85,3.45c0,1.84,1.03,2.73,1.85,3.46c0.72,0.63,1.09,0.99,1.09,1.7
			c0,0.71-0.37,1.07-1.09,1.69l0,0c-0.35,0.31-0.38,0.83-0.07,1.18c0.17,0.19,0.4,0.28,0.63,0.28c0.2,0,0.4-0.07,0.56-0.21
			c0.74-0.65,1.66-1.45,1.66-2.95c0-1.5-0.92-2.31-1.66-2.96c-0.71-0.62-1.28-1.12-1.28-2.19c0-1.07,0.56-1.56,1.28-2.19
			c0.74-0.65,1.66-1.45,1.66-2.96c0-1.5-0.92-2.31-1.66-2.96c-0.71-0.62-1.28-1.12-1.28-2.19c0-1.07,0.56-1.56,1.28-2.19
			c0.35-0.31,0.38-0.84,0.08-1.19c-0.31-0.35-0.84-0.38-1.19-0.08c-0.82,0.72-1.85,1.62-1.85,3.45c0,1.83,1.03,2.73,1.85,3.45
			c0.72,0.63,1.09,0.99,1.09,1.69S25.51,12.29,24.8,12.92z"></path><path d="M28.29 9.46c.78.58 1.22.94 1.22 1.71 0 .77-.44 1.13-1.23 1.71-.76.57-1.71 1.27-1.71 2.64 0 1.37.95 2.07 1.72 2.64.78.58 1.22.94 1.22 1.71 0 .77-.44 1.13-1.22 1.71-.37.28-.45.8-.18 1.17.16.22.42.34.68.34.17 0 .35-.05.5-.16.8-.59 1.9-1.41 1.9-3.06 0-1.65-1.1-2.46-1.9-3.06-.74-.54-1.03-.81-1.03-1.29 0-.48.3-.74 1.04-1.29.8-.59 1.9-1.41 1.9-3.06 0-1.65-1.1-2.46-1.9-3.06-.74-.54-1.04-.81-1.04-1.29 0-.48.3-.74 1.03-1.29l0 0c.37-.28.45-.8.17-1.17-.28-.37-.8-.45-1.18-.17-.76.57-1.71 1.27-1.71 2.64C26.58 8.19 27.53 8.9 28.29 9.46zM34.61 18.68c0 1.51-.62 2.2-1.35 3.01-.31.34-.28.87.07 1.18.16.14.36.21.56.21.23 0 .47-.1.64-.28.79-.87 1.76-1.96 1.76-4.11 0-2.13-.97-3.22-1.78-4.14-.67-.74-1.15-1.27-1.15-2.37 0-.55.12-.98.38-1.4.25-.39.12-.91-.27-1.16-.39-.25-.91-.13-1.16.27-.43.69-.64 1.44-.64 2.29 0 1.75.85 2.68 1.62 3.53C34 16.51 34.61 17.19 34.61 18.68z"></path><path d="M38.24 18.04c0 1.37-.59 1.97-1.33 2.74-.32.33-.31.87.02 1.19.16.16.37.24.58.24.22 0 .44-.09.6-.26.8-.83 1.8-1.86 1.8-3.91 0-2.05-1-3.08-1.8-3.91-.66-.68-1.14-1.18-1.14-2.16 0-.46.1-.83.33-1.19.25-.39.14-.91-.26-1.16-.39-.25-.91-.14-1.16.26-.4.63-.6 1.31-.6 2.09 0 1.66.85 2.54 1.61 3.33C37.65 16.07 38.24 16.67 38.24 18.04zM43.93 41.62c1.14-.1 3.18-.49 4.75-2.05 1.45-1.45 2.14-3.52 2.02-6.17-.02-.45-.39-.8-.84-.8h-5.92v-4.59c0-3.21-11.22-3.31-12.51-3.31-1.27 0-12.5.1-12.5 3.31V44.1c0 2.17.87 4.15 2.27 5.59-4.31.81-6.5 2.03-6.5 3.65 0 3.55 10.94 4.49 16.72 4.49 5.79 0 16.73-.94 16.73-4.49 0-1.63-2.18-2.85-6.5-3.65 1.4-1.45 2.27-3.42 2.27-5.59V41.62zM43.93 34.28h5.09c-.05 1.76-.56 3.13-1.52 4.09-1.13 1.13-2.65 1.47-3.57 1.57V34.28zM31.43 26.39c6.37 0 9.99 1.01 10.74 1.63-.74.61-4.37 1.62-10.74 1.62s-9.99-1-10.73-1.62C21.44 27.4 25.06 26.39 31.43 26.39zM46.48 53.35c0 .84-5.12 2.81-15.05 2.81-9.92 0-15.04-1.97-15.04-2.81 0-.22 1.17-1.45 6.62-2.24 1.19.68 2.55 1.07 4 1.07h8.85c1.45 0 2.82-.39 4-1.07C44.9 51.84 46.48 53 46.48 53.35zM42.25 33.43L42.25 33.43c-.01.02 0 .03 0 .03v7.31c0 .01-.01.01-.01.01 0 .01.01.01.01.02v3.31c0 3.52-2.88 6.39-6.4 6.39H27c-3.52 0-6.39-2.87-6.39-6.39V29.85c3.18 1.42 9.85 1.47 10.82 1.47.97 0 7.65-.05 10.83-1.47V33.43z"></path><path fill="#53b4ed" d="M42.25,33.43L42.25,33.43c-0.01,0.02,0,0.03,0,0.03v7.31c0,0.01-0.01,0.01-0.01,0.01
			c0,0.01,0.01,0.01,0.01,0.02v3.31c0,3.52-2.88,6.39-6.4,6.39H27c-3.52,0-6.39-2.87-6.39-6.39V29.85
			c3.18,1.42,9.85,1.47,10.82,1.47c0.97,0,7.65-0.05,10.83-1.47V33.43z"></path><path fill="#c2cbd6" d="M46.48,53.35c0,0.84-5.12,2.81-15.05,2.81c-9.92,0-15.04-1.97-15.04-2.81c0-0.22,1.17-1.45,6.62-2.24
			c1.19,0.68,2.55,1.07,4,1.07h8.85c1.45,0,2.82-0.39,4-1.07C44.9,51.84,46.48,53,46.48,53.35z"></path></svg>